<svg class="animated" id="freepik_stories-metrics" xmlns="http://www.w3.org/2000/svg" viewBox="0 0 500 500" version="1.1" xmlns:xlink="http://www.w3.org/1999/xlink" xmlns:svgjs="http://svgjs.com/svgjs"><style>svg#freepik_stories-metrics:not(.animated) .animable {opacity: 0;}svg#freepik_stories-metrics.animated #freepik--background-complete--inject-68 {animation: 1s 1 forwards cubic-bezier(.36,-0.01,.5,1.38) zoomIn;animation-delay: 0s;}svg#freepik_stories-metrics.animated #freepik--Plant--inject-68 {animation: 1s 1 forwards cubic-bezier(.36,-0.01,.5,1.38) lightSpeedRight;animation-delay: 0s;}svg#freepik_stories-metrics.animated #freepik--Floor--inject-68 {animation: 1s 1 forwards cubic-bezier(.36,-0.01,.5,1.38) lightSpeedRight;animation-delay: 0s;}svg#freepik_stories-metrics.animated #freepik--Screens--inject-68 {animation: 1s 1 forwards cubic-bezier(.36,-0.01,.5,1.38) fadeIn;animation-delay: 0s;}svg#freepik_stories-metrics.animated #freepik--Desk--inject-68 {animation: 1s 1 forwards cubic-bezier(.36,-0.01,.5,1.38) slideUp;animation-delay: 0s;}svg#freepik_stories-metrics.animated #freepik--Character--inject-68 {animation: 1s 1 forwards cubic-bezier(.36,-0.01,.5,1.38) zoomIn,1.5s Infinite  linear floating;animation-delay: 0s,1s;}            @keyframes zoomIn {                0% {                    opacity: 0;                    transform: scale(0.5);                }                100% {                    opacity: 1;                    transform: scale(1);                }            }                    @keyframes lightSpeedRight {              from {                transform: translate3d(50%, 0, 0) skewX(-20deg);                opacity: 0;              }              60% {                transform: skewX(10deg);                opacity: 1;              }              80% {                transform: skewX(-2deg);              }              to {                opacity: 1;                transform: translate3d(0, 0, 0);              }            }                    @keyframes fadeIn {                0% {                    opacity: 0;                }                100% {                    opacity: 1;                }            }                    @keyframes slideUp {                0% {                    opacity: 0;                    transform: translateY(30px);                }                100% {                    opacity: 1;                    transform: inherit;                }            }                    @keyframes floating {                0% {                    opacity: 1;                    transform: translateY(0px);                }                50% {                    transform: translateY(-10px);                }                100% {                    opacity: 1;                    transform: translateY(0px);                }            }        </style><g id="freepik--background-complete--inject-68" class="animable" style="transform-origin: 255.34px 361.115px;"><path d="M468.83,326.48s0-.43,0-1.26,0-2.06,0-3.66c0-3.2,0-7.89,0-13.88,0-11.95,0-29.07-.06-49.71l.12.12-86.1,0h0l.15-.15c0,24.73,0,48.11,0,68.51l-.14-.13,62.21.07,17.62,0,4.67,0H462.6l-17.59,0-62.29.07h-.13v-.14c0-20.4,0-43.78,0-68.51v-.15h.16l86.1,0H469V258c0,20.68,0,37.82-.07,49.79,0,6,0,10.66,0,13.85,0,1.59,0,2.81,0,3.64S468.83,326.48,468.83,326.48Z" style="fill: rgb(224, 224, 224); transform-origin: 425.795px 292.07px;" id="elt5gjeywidcl" class="animable"></path><rect x="393.85" y="270.67" width="3.11" height="34.77" style="fill: rgb(224, 224, 224); transform-origin: 395.405px 288.055px;" id="eliffonhg02vs" class="animable"></rect><rect x="399.86" y="282.48" width="3.11" height="22.96" style="fill: rgb(235, 235, 235); transform-origin: 401.415px 293.96px;" id="elqyxyuggdzae" class="animable"></rect><rect x="405.88" y="274.99" width="3.11" height="30.63" style="fill: rgb(224, 224, 224); transform-origin: 407.435px 290.305px;" id="ely72k1xvg11f" class="animable"></rect><rect x="411.89" y="272.01" width="3.11" height="33.43" style="fill: rgb(235, 235, 235); transform-origin: 413.445px 288.725px;" id="elg79gmdpi3ij" class="animable"></rect><rect x="417.9" y="283.18" width="3.11" height="22.26" style="fill: rgb(224, 224, 224); transform-origin: 419.455px 294.31px;" id="el1pjy31zrepd" class="animable"></rect><rect x="423.91" y="287.55" width="3.11" height="17.89" style="fill: rgb(235, 235, 235); transform-origin: 425.465px 296.495px;" id="elqmpsc1wdom" class="animable"></rect><rect x="429.92" y="274.24" width="3.11" height="31.21" style="fill: rgb(224, 224, 224); transform-origin: 431.475px 289.845px;" id="eltn11zgblcoo" class="animable"></rect><rect x="435.93" y="279.86" width="3.11" height="25.58" style="fill: rgb(235, 235, 235); transform-origin: 437.485px 292.65px;" id="elpkvu94hxdmk" class="animable"></rect><rect x="441.94" y="275.37" width="3.11" height="30.07" style="fill: rgb(224, 224, 224); transform-origin: 443.495px 290.405px;" id="el071hdeda9c6s" class="animable"></rect><rect x="447.95" y="284.95" width="3.11" height="20.49" style="fill: rgb(235, 235, 235); transform-origin: 449.505px 295.195px;" id="elg0dwoa2fi2p" class="animable"></rect><rect x="453.97" y="281.05" width="3.11" height="24.39" style="fill: rgb(224, 224, 224); transform-origin: 455.525px 293.245px;" id="elbm99el3pqf" class="animable"></rect><path d="M458.35,307.86c0,.07-14.77.13-33,.13s-33-.06-33-.13,14.76-.13,33-.13S458.35,307.79,458.35,307.86Z" style="fill: rgb(224, 224, 224); transform-origin: 425.35px 307.86px;" id="elnasilaswysf" class="animable"></path><path d="M398.29,310.6a20.59,20.59,0,0,1-4.62,0,20.59,20.59,0,0,1,4.62,0Z" style="fill: rgb(224, 224, 224); transform-origin: 395.98px 310.6px;" id="elr31foqazyw" class="animable"></path><path d="M406,310.74a29.36,29.36,0,0,1-5.52,0,29.36,29.36,0,0,1,5.52,0Z" style="fill: rgb(224, 224, 224); transform-origin: 403.24px 310.74px;" id="elrsz62y186w" class="animable"></path><path d="M412.5,310.74a29.47,29.47,0,0,1-5.53,0,29.47,29.47,0,0,1,5.53,0Z" style="fill: rgb(224, 224, 224); transform-origin: 409.735px 310.74px;" id="ely1n9r6w1s1" class="animable"></path><path d="M419,310.74a29.36,29.36,0,0,1-5.52,0,29.36,29.36,0,0,1,5.52,0Z" style="fill: rgb(224, 224, 224); transform-origin: 416.24px 310.74px;" id="elfzd5vsdncm" class="animable"></path><path d="M425.57,310.74a29.36,29.36,0,0,1-5.52,0,29.36,29.36,0,0,1,5.52,0Z" style="fill: rgb(224, 224, 224); transform-origin: 422.81px 310.74px;" id="elmeh8vj9649o" class="animable"></path><path d="M432.11,310.74a29.36,29.36,0,0,1-5.52,0,29.36,29.36,0,0,1,5.52,0Z" style="fill: rgb(224, 224, 224); transform-origin: 429.35px 310.74px;" id="el3r25etaakk5" class="animable"></path><path d="M438.65,310.74a29.47,29.47,0,0,1-5.53,0,29.47,29.47,0,0,1,5.53,0Z" style="fill: rgb(224, 224, 224); transform-origin: 435.885px 310.74px;" id="elcrjdhsonqlm" class="animable"></path><path d="M445.19,310.74a29.47,29.47,0,0,1-5.53,0,29.47,29.47,0,0,1,5.53,0Z" style="fill: rgb(224, 224, 224); transform-origin: 442.425px 310.74px;" id="elmwrursq4dsi" class="animable"></path><path d="M451.72,310.74a29.36,29.36,0,0,1-5.52,0,29.36,29.36,0,0,1,5.52,0Z" style="fill: rgb(224, 224, 224); transform-origin: 448.96px 310.74px;" id="elw3zzdnww0rk" class="animable"></path><path d="M458.26,310.74a29.36,29.36,0,0,1-5.52,0,29.36,29.36,0,0,1,5.52,0Z" style="fill: rgb(224, 224, 224); transform-origin: 455.5px 310.74px;" id="elrvfvux8gksi" class="animable"></path><polygon points="131.7 487.37 137.65 487.28 150.81 371.73 144.94 371.05 131.7 487.37" style="fill: rgb(224, 224, 224); transform-origin: 141.255px 429.21px;" id="elnq3ukwrfwp9" class="animable"></polygon><polygon points="166.61 487.37 172.57 487.28 185.72 371.73 179.86 371.05 166.61 487.37" style="fill: rgb(224, 224, 224); transform-origin: 176.165px 429.21px;" id="el74le55gtr9d" class="animable"></polygon><polygon points="271.86 487.59 265.9 487.5 252.75 373 258.61 372.33 271.86 487.59" style="fill: rgb(224, 224, 224); transform-origin: 262.305px 429.96px;" id="elxffb6a1trm" class="animable"></polygon><polygon points="233.46 487.59 227.51 487.5 214.35 373 220.22 372.33 233.46 487.59" style="fill: rgb(224, 224, 224); transform-origin: 223.905px 429.96px;" id="elygdwxvo1lvo" class="animable"></polygon><g id="elzplp6ithbbe"><rect x="142.12" y="368.92" width="120.18" height="12.45" style="fill: rgb(235, 235, 235); transform-origin: 202.21px 375.145px; transform: rotate(180deg);" class="animable" id="elqik1gqieh9c"></rect></g><polygon points="218.07 239.6 141.93 240.54 142.12 369.76 227.09 370.49 218.07 239.6" style="fill: rgb(235, 235, 235); transform-origin: 184.51px 305.045px;" id="el5t0y5zanc8n" class="animable"></polygon><path d="M150.81,369.25s-.17.27-.53.79-.91,1.3-1.63,2.31c-1.45,2.06-3.61,5.1-6.43,9.09l-.1-.18,120.18.11-.28.29c0-4,0-8.34,0-12.74l.29.29-46.17.15-65.32.17h-.28v-.28c0-37.58.08-69.76.1-92.55,0-11.38.07-20.41.09-26.62,0-3.09,0-5.47,0-7.09,0-.8,0-1.4,0-1.83s0-.62,0-.62,0,.21,0,.62,0,1,0,1.83c0,1.62,0,4,0,7.09,0,6.21,0,15.24.08,26.62,0,22.79.07,55,.11,92.55l-.28-.29,65.32-.2,46.17-.13h.3V382h-.29l-120.18-.46h-.22l.13-.18,6.53-9,1.67-2.29C150.61,369.49,150.81,369.25,150.81,369.25Z" style="fill: rgb(224, 224, 224); transform-origin: 202.085px 311.27px;" id="elwtm71tub1pi" class="animable"></path><path d="M45.69,280.85v24.93H41.78v2.71h3.91v16.68h73.07V310h-5.41v-3.31h5.41v-5h2.4v-2.25h-2.85V280.85Z" style="fill: rgb(245, 245, 245); transform-origin: 81.47px 303.01px;" id="elqbjqr5w459" class="animable"></path><polygon points="99.36 280.92 99.36 324.9 118.76 324.9 118.76 309.71 113.35 309.71 113.35 306.68 118.76 306.79 118.76 301.82 121.21 301.83 121.16 299.26 118.31 299.19 118.31 280.85 99.36 280.92" style="fill: rgb(224, 224, 224); transform-origin: 110.285px 302.875px;" id="el2vo9sqqxku5" class="animable"></polygon><path d="M100.74,308.13c0,.15-13.22.27-29.53.27s-29.53-.12-29.53-.27,13.22-.28,29.53-.28S100.74,308,100.74,308.13Z" style="fill: rgb(224, 224, 224); transform-origin: 71.21px 308.125px;" id="el4vmhfcf005" class="animable"></path><path d="M100.74,305.6c0,.15-13.22.27-29.53.27s-29.53-.12-29.53-.27,13.22-.28,29.53-.28S100.74,305.44,100.74,305.6Z" style="fill: rgb(224, 224, 224); transform-origin: 71.21px 305.595px;" id="elmd7kqc5tv2b" class="animable"></path><path d="M104.53,298.78c0,.15-13.22.28-29.53.28s-29.53-.13-29.53-.28,13.22-.28,29.53-.28S104.53,298.63,104.53,298.78Z" style="fill: rgb(224, 224, 224); transform-origin: 75px 298.78px;" id="eln9dg15gtggl" class="animable"></path><path d="M104.9,317.35c0,.16-13.23.28-29.53.28s-29.53-.12-29.53-.28,13.22-.27,29.53-.27S104.9,317.2,104.9,317.35Z" style="fill: rgb(224, 224, 224); transform-origin: 75.37px 317.355px;" id="el4joxw7smfiq" class="animable"></path><rect x="252.37" y="275.06" width="65.02" height="5.04" style="fill: rgb(235, 235, 235); transform-origin: 284.88px 277.58px;" id="elfah3864bux5" class="animable"></rect><rect x="299.53" y="275.06" width="17.85" height="5.04" style="fill: rgb(224, 224, 224); transform-origin: 308.455px 277.58px;" id="elinops2l38k9" class="animable"></rect><path d="M244.11,280.1v22.72h-3.56v2.46h3.56v15.21h66.58V306.65h-4.94v-3h4.94v-4.52h2.19v-2.06h-2.61v-17Z" style="fill: rgb(245, 245, 245); transform-origin: 276.715px 300.28px;" id="el9czfb8spcuc" class="animable"></path><polygon points="293.01 280.17 293.01 320.24 310.69 320.24 310.69 306.4 305.75 306.4 305.75 303.64 310.69 303.64 310.69 299.12 312.88 299.12 312.88 296.81 310.27 296.81 310.27 280.1 293.01 280.17" style="fill: rgb(224, 224, 224); transform-origin: 302.945px 300.17px;" id="ely9jgccd0wp9" class="animable"></polygon><path d="M294.27,305c0,.14-12,.25-26.91.25s-26.91-.11-26.91-.25,12.05-.25,26.91-.25S294.27,304.82,294.27,305Z" style="fill: rgb(224, 224, 224); transform-origin: 267.36px 305px;" id="el8b7b9f2xxuj" class="animable"></path><path d="M294.27,302.65c0,.14-12,.25-26.91.25s-26.91-.11-26.91-.25,12.05-.25,26.91-.25S294.27,302.51,294.27,302.65Z" style="fill: rgb(224, 224, 224); transform-origin: 267.36px 302.65px;" id="ely1luclmtqyi" class="animable"></path><path d="M297.72,296.44c0,.14-12.05.25-26.9.25s-26.91-.11-26.91-.25,12.05-.25,26.91-.25S297.72,296.3,297.72,296.44Z" style="fill: rgb(224, 224, 224); transform-origin: 270.815px 296.44px;" id="ellwlt6x4z4ve" class="animable"></path><path d="M298.05,313.36c0,.14-12,.26-26.9.26s-26.91-.12-26.91-.26,12.05-.25,26.91-.25S298.05,313.22,298.05,313.36Z" style="fill: rgb(224, 224, 224); transform-origin: 271.145px 313.365px;" id="el3ybkq6rw3rv" class="animable"></path><path d="M250.7,234.67v22.71h-3.57v2.47h3.57v15.21h66.57V261.22h-4.93v-3h4.93v-4.52h2.19v-2.06h-2.6v-17Z" style="fill: rgb(245, 245, 245); transform-origin: 283.295px 254.85px;" id="elguk20c0vej6" class="animable"></path><polygon points="299.59 234.73 299.59 274.8 317.27 274.8 317.27 260.97 312.34 260.97 312.34 258.21 317.27 258.3 317.27 253.78 319.5 253.78 319.46 251.45 316.86 251.38 316.86 234.67 299.59 234.73" style="fill: rgb(224, 224, 224); transform-origin: 309.545px 254.735px;" id="elbj89zy3q7d4" class="animable"></polygon><path d="M300.85,259.52c0,.14-12.05.26-26.9.26s-26.91-.12-26.91-.26,12-.25,26.91-.25S300.85,259.39,300.85,259.52Z" style="fill: rgb(224, 224, 224); transform-origin: 273.945px 259.525px;" id="elc6aolpq7nmd" class="animable"></path><path d="M300.85,257.22c0,.14-12.05.25-26.9.25s-26.91-.11-26.91-.25,12-.26,26.91-.26S300.85,257.08,300.85,257.22Z" style="fill: rgb(224, 224, 224); transform-origin: 273.945px 257.215px;" id="elm9yt6ju8vj" class="animable"></path><path d="M304.31,251c0,.13-12.05.25-26.91.25s-26.9-.12-26.9-.25,12-.26,26.9-.26S304.31,250.87,304.31,251Z" style="fill: rgb(224, 224, 224); transform-origin: 277.405px 250.995px;" id="elg6a9aey2xgk" class="animable"></path><path d="M304.64,267.93c0,.14-12.05.25-26.9.25s-26.91-.11-26.91-.25,12-.25,26.91-.25S304.64,267.79,304.64,267.93Z" style="fill: rgb(224, 224, 224); transform-origin: 277.735px 267.93px;" id="elpsauzu20ru" class="animable"></path><rect x="248.01" y="320.26" width="65.02" height="5.04" style="fill: rgb(235, 235, 235); transform-origin: 280.52px 322.78px;" id="eli34qfir1wkp" class="animable"></rect><rect x="295.17" y="320.26" width="17.85" height="5.04" style="fill: rgb(224, 224, 224); transform-origin: 304.095px 322.78px;" id="elcb9pexv2klf" class="animable"></rect></g><g id="freepik--Plant--inject-68" class="animable" style="transform-origin: 119.805px 435.934px;"><path d="M129.72,422.93c-.06.08-.63-.25-1.25-.75s-1.08-1-1-1.06.63.25,1.25.75S129.79,422.85,129.72,422.93Z" style="fill: rgb(38, 50, 56); transform-origin: 128.594px 422.027px;" id="elw3b26o7xqp8" class="animable"></path><path d="M146.78,397.44a19.83,19.83,0,0,0-.58-7.09,7,7,0,0,0-4.83-4.83c-2.67-.55-5.4,1.13-6.89,3.41s-2,5-2.45,7.72a272.5,272.5,0,0,0-3.34,56.05l10.9,1.53C144.38,434.66,145.91,417.56,146.78,397.44Z" style="fill: rgb(69, 90, 100); transform-origin: 137.653px 419.823px;" id="elewb1azf0qy" class="animable"></path><path d="M139.85,385.44s0,.06,0,.17-.1.3-.18.5c-.17.46-.42,1.09-.72,1.88-.15.41-.36.86-.52,1.36s-.34,1.06-.53,1.65-.39,1.23-.61,1.9-.37,1.41-.56,2.16a95.27,95.27,0,0,0-2.11,10.79c-.59,4.1-1,8.65-1.28,13.42-.56,9.55-.64,18.22-.89,24.49-.12,3.14-.22,5.67-.34,7.43-.06.85-.11,1.52-.14,2,0,.21,0,.38,0,.53s0,.17,0,.17,0-.06,0-.18v-.52c0-.5,0-1.17.06-2,.08-1.75.14-4.29.22-7.43.18-6.27.22-14.94.78-24.51.31-4.78.71-9.33,1.32-13.44A90.25,90.25,0,0,1,136.41,395c.21-.75.41-1.48.59-2.16s.44-1.3.65-1.89.38-1.14.56-1.65.38-1,.55-1.35c.33-.79.6-1.41.79-1.86l.22-.48Z" style="fill: rgb(38, 50, 56); transform-origin: 135.91px 419.665px;" id="elcdmxkfae726" class="animable"></path><path d="M140.86,385.44a7.93,7.93,0,0,1,1.34,2.26,16.83,16.83,0,0,1,1,7.05c-.29,6-.83,14.33-1.55,23.5s-1.52,17.45-2.16,23.44c-.32,3-.6,5.42-.81,7.09l-.24,1.93c0,.2-.06.36-.08.5l0,.16s0-.06,0-.17,0-.3,0-.5c0-.48.1-1.12.17-1.93.17-1.72.4-4.13.69-7.11.57-6,1.32-14.28,2-23.44s1.3-17.47,1.65-23.48a17,17,0,0,0-.85-7A14.47,14.47,0,0,0,140.86,385.44Z" style="fill: rgb(38, 50, 56); transform-origin: 140.802px 418.405px;" id="el3rorrtm02ew" class="animable"></path><path d="M148.42,413.66a5.58,5.58,0,0,1-2.06-.53,6.18,6.18,0,0,1-1.94-.9,6.13,6.13,0,0,1,2.07.53A6.05,6.05,0,0,1,148.42,413.66Z" style="fill: rgb(38, 50, 56); transform-origin: 146.42px 412.945px;" id="elnwi6ep3qfxj" class="animable"></path><path d="M149.74,402.55a6.73,6.73,0,0,1-2,1.1,6.62,6.62,0,0,1-2.12.73,6.53,6.53,0,0,1,2-1.09A6.44,6.44,0,0,1,149.74,402.55Z" style="fill: rgb(38, 50, 56); transform-origin: 147.68px 403.465px;" id="eli8uernfhp9" class="animable"></path><path d="M149.06,393.48a3.48,3.48,0,0,1-1.63.09,3.58,3.58,0,0,1-1.6-.31,3.56,3.56,0,0,1,1.63-.08A3.7,3.7,0,0,1,149.06,393.48Z" style="fill: rgb(38, 50, 56); transform-origin: 147.445px 393.374px;" id="elbdonqq7mqq" class="animable"></path><path d="M137.8,387.67c-.09.06-.56-.54-1.06-1.33a3.9,3.9,0,0,1-.74-1.53c.09-.06.57.53,1.07,1.33S137.9,387.61,137.8,387.67Z" style="fill: rgb(38, 50, 56); transform-origin: 136.909px 386.24px;" id="ely9fcd0dk45i" class="animable"></path><path d="M134.09,393.15a3.15,3.15,0,0,1-1.55.17c-.86,0-1.55-.12-1.54-.23s.69-.18,1.55-.16A3.45,3.45,0,0,1,134.09,393.15Z" style="fill: rgb(38, 50, 56); transform-origin: 132.545px 393.134px;" id="el86kki43xkf5" class="animable"></path><path d="M131.42,404.13a3.76,3.76,0,0,1-1.63-.45c-.86-.35-1.53-.71-1.49-.81a3.76,3.76,0,0,1,1.63.45C130.79,403.67,131.46,404,131.42,404.13Z" style="fill: rgb(38, 50, 56); transform-origin: 129.86px 403.5px;" id="elfm65gyqqcck" class="animable"></path><path d="M131.13,413.36c0,.1-.6.32-1.39.49s-1.44.21-1.46.1.6-.32,1.38-.49S131.11,413.25,131.13,413.36Z" style="fill: rgb(38, 50, 56); transform-origin: 129.705px 413.655px;" id="elb69c0ilwhhd" class="animable"></path><path d="M129.88,428.45c0,.11-.65.31-1.48.46s-1.52.19-1.54.08a3.27,3.27,0,0,1,1.47-.46C129.17,428.38,129.86,428.34,129.88,428.45Z" style="fill: rgb(38, 50, 56); transform-origin: 128.37px 428.72px;" id="elpg24cflto" class="animable"></path><path d="M129,436.78c.05.1-.5.49-1.23.87s-1.36.62-1.41.53.5-.49,1.23-.87S129,436.69,129,436.78Z" style="fill: rgb(38, 50, 56); transform-origin: 127.68px 437.48px;" id="elhjix832slre" class="animable"></path><path d="M135.85,446.24c-.1.05-.58-.61-1.08-1.48a4.54,4.54,0,0,1-.73-1.67c.1,0,.57.61,1.07,1.48A4.54,4.54,0,0,1,135.85,446.24Z" style="fill: rgb(38, 50, 56); transform-origin: 134.945px 444.666px;" id="el0twk2m9p6lzl" class="animable"></path><path d="M137.81,430.52c.07.08-.46.73-1.19,1.45s-1.39,1.24-1.47,1.16.46-.72,1.19-1.44S137.73,430.45,137.81,430.52Z" style="fill: rgb(38, 50, 56); transform-origin: 136.479px 431.826px;" id="eliqxqrsfojq" class="animable"></path><path d="M137.37,422.28c-.07.07-.57-.34-1.1-.91s-.9-1.1-.82-1.17.57.33,1.1.91S137.45,422.2,137.37,422.28Z" style="fill: rgb(38, 50, 56); transform-origin: 136.41px 421.24px;" id="elu6wrmum4mfd" class="animable"></path><path d="M138.72,411.74c.08.07-.36.7-1,1.4s-1.2,1.22-1.28,1.14.36-.7,1-1.4S138.64,411.67,138.72,411.74Z" style="fill: rgb(38, 50, 56); transform-origin: 137.58px 413.011px;" id="elte94zcmp26j" class="animable"></path><path d="M139.48,404.09c-.07.08-.69-.41-1.38-1.08s-1.19-1.3-1.12-1.37.7.41,1.39,1.09S139.56,404,139.48,404.09Z" style="fill: rgb(38, 50, 56); transform-origin: 138.231px 402.866px;" id="eldx6qa0ofp9" class="animable"></path><path d="M141,393.76a3.88,3.88,0,0,1-.7,1.55c-.48.79-.94,1.4-1,1.34a3.87,3.87,0,0,1,.7-1.54C140.42,394.31,140.88,393.7,141,393.76Z" style="fill: rgb(38, 50, 56); transform-origin: 140.15px 395.205px;" id="el86l7ptg1un7" class="animable"></path><path d="M143.78,384.18c.1.05-.18.74-.61,1.55s-.87,1.41-1,1.36a3.75,3.75,0,0,1,.62-1.55C143.26,384.74,143.69,384.13,143.78,384.18Z" style="fill: rgb(38, 50, 56); transform-origin: 142.985px 385.635px;" id="elf407tv0ntfc" class="animable"></path><path d="M147,388.53c.05.1-.39.4-1,.68s-1.1.43-1.15.33.39-.4,1-.68S146.92,388.43,147,388.53Z" style="fill: rgb(38, 50, 56); transform-origin: 145.925px 389.035px;" id="elqipd3rhye1g" class="animable"></path><path d="M147.05,422.93a4.38,4.38,0,0,1-2.14-.52,4.26,4.26,0,0,1-1.84-1.18,11.6,11.6,0,0,1,2,.83A10.78,10.78,0,0,1,147.05,422.93Z" style="fill: rgb(38, 50, 56); transform-origin: 145.06px 422.08px;" id="el0x3aj8hsvsy" class="animable"></path><path d="M145.74,430.22c0,.1-.63.32-1.46.48a3.27,3.27,0,0,1-1.54.1c0-.11.63-.32,1.46-.48S145.72,430.11,145.74,430.22Z" style="fill: rgb(38, 50, 56); transform-origin: 144.24px 430.505px;" id="elx7ecm5nzrc" class="animable"></path><path d="M144.14,442.71a4.3,4.3,0,0,1-1.66-1.46,4.18,4.18,0,0,1-1-1.95,12.68,12.68,0,0,1,1.35,1.71A12.46,12.46,0,0,1,144.14,442.71Z" style="fill: rgb(38, 50, 56); transform-origin: 142.81px 441.005px;" id="el7r7ypvfhcuv" class="animable"></path><path d="M126.62,448.42c-.07-.08.37-.57,1-1.1s1.17-.89,1.24-.8-.37.57-1,1.1S126.69,448.51,126.62,448.42Z" style="fill: rgb(38, 50, 56); transform-origin: 127.74px 447.47px;" id="elnvghl0npetk" class="animable"></path><path d="M121.58,421.16c-.71-2.22-2-4.8-4.37-4.84a3.88,3.88,0,0,0-3.27,2.19,8.09,8.09,0,0,0-.88,4,104.15,104.15,0,0,0,5,29.05h8.51A101.09,101.09,0,0,0,121.58,421.16Z" style="fill: rgb(69, 90, 100); transform-origin: 119.812px 433.94px;" id="el6c4ytdzbikd" class="animable"></path><path d="M106.18,407.21a9.46,9.46,0,0,0-8.86-7.57c-3.76.66-5.22,4.36-5.67,8.16s.73,7.57,1.9,11.21q5.6,17.52,11.2,35.05l10.59-1.16C112,437.25,110.07,422.74,106.18,407.21Z" style="fill: rgb(69, 90, 100); transform-origin: 103.446px 426.85px;" id="elrkdqfxz1li" class="animable"></path><path d="M117.21,416.32a10,10,0,0,0-.72,1.21,7.89,7.89,0,0,0-.4,3.76c.17,1.62.35,3.57.62,5.7s.67,4.49,1.14,6.93c1,4.89,2.05,9.28,2.74,12.48.35,1.6.61,2.9.78,3.8l.18,1a1.61,1.61,0,0,1,0,.36,1.4,1.4,0,0,1-.11-.35l-.25-1c-.23-1-.53-2.22-.9-3.77-.76-3.18-1.88-7.56-2.85-12.46-.48-2.46-.85-4.81-1.11-7-.14-1.08-.23-2.1-.32-3.06s-.18-1.85-.22-2.67a7.73,7.73,0,0,1,.53-3.84A3.36,3.36,0,0,1,117.21,416.32Z" style="fill: rgb(38, 50, 56); transform-origin: 118.649px 433.94px;" id="elocw00yj2je9" class="animable"></path><path d="M97.47,399.34a14.19,14.19,0,0,0-1.28,1.72,12.12,12.12,0,0,0-1.61,5.54,25.79,25.79,0,0,0,1.31,8.53l3,10.24c2.12,7.26,4,13.83,5.43,18.63.66,2.36,1.21,4.28,1.6,5.66.17.64.31,1.15.41,1.54a3.51,3.51,0,0,1,.12.55,3.38,3.38,0,0,1-.19-.53c-.13-.38-.29-.89-.49-1.52-.42-1.37-1-3.28-1.72-5.62-1.42-4.8-3.37-11.36-5.53-18.6l-3-10.26a25.27,25.27,0,0,1-1.24-8.64,11.82,11.82,0,0,1,1.76-5.6A6.37,6.37,0,0,1,97.47,399.34Z" style="fill: rgb(38, 50, 56); transform-origin: 100.359px 425.545px;" id="elv4hkl8x6ium" class="animable"></path><path d="M113,451.77a4.46,4.46,0,0,1-.24-.51c-.13-.34-.36-.83-.6-1.49-.5-1.3-1.15-3.22-1.82-5.62s-1.33-5.31-2-8.54-1.29-6.8-2-10.54-1.56-7.26-2.51-10.4a58.28,58.28,0,0,0-3.08-8.16A42.54,42.54,0,0,0,98,401.36c-.36-.59-.69-1-.89-1.33a3,3,0,0,1-.3-.48,2.54,2.54,0,0,1,.36.43c.22.3.57.71,1,1.3a38.31,38.31,0,0,1,3,5.11,55,55,0,0,1,3.19,8.17A104.31,104.31,0,0,1,106.78,425c.7,3.74,1.36,7.3,2,10.55s1.25,6.13,1.89,8.53,1.23,4.33,1.69,5.65c.22.66.42,1.16.54,1.51A2.15,2.15,0,0,1,113,451.77Z" style="fill: rgb(38, 50, 56); transform-origin: 104.905px 425.66px;" id="elw12usy5zhzb" class="animable"></path><path d="M93.74,417.26c0,.1-.56.33-1.29.51s-1.35.24-1.38.13.55-.33,1.29-.51S93.71,417.15,93.74,417.26Z" style="fill: rgb(38, 50, 56); transform-origin: 92.4044px 417.58px;" id="el2m1xijs2vwi" class="animable"></path><path d="M92.61,410a5.19,5.19,0,0,1-1.78.19,5.2,5.2,0,0,1-1.8-.05,3.74,3.74,0,0,1,1.78-.34A3.56,3.56,0,0,1,92.61,410Z" style="fill: rgb(38, 50, 56); transform-origin: 90.82px 410.004px;" id="el7z38szyfy8i" class="animable"></path><path d="M93.81,403.43c-.07.08-.65-.29-1.29-.84s-1.1-1-1-1.13.64.29,1.28.84S93.88,403.35,93.81,403.43Z" style="fill: rgb(38, 50, 56); transform-origin: 92.6618px 402.439px;" id="elt6l11qb769b" class="animable"></path><path d="M97,397.32c.1,0,.07.54.06,1.16s0,1.14-.13,1.15-.28-.5-.26-1.16S96.94,397.29,97,397.32Z" style="fill: rgb(38, 50, 56); transform-origin: 96.8701px 398.474px;" id="elkoqxaph43o" class="animable"></path><path d="M103.64,400.2c.09.06-.17.58-.58,1.16s-.81,1-.9.94.18-.58.58-1.16S103.55,400.13,103.64,400.2Z" style="fill: rgb(38, 50, 56); transform-origin: 102.9px 401.249px;" id="elyqk3pl8k4km" class="animable"></path><path d="M107.92,407.64c0,.1-.5.42-1.22.71s-1.33.45-1.37.35.5-.42,1.22-.71S107.88,407.54,107.92,407.64Z" style="fill: rgb(38, 50, 56); transform-origin: 106.624px 408.17px;" id="el35p7ad9y3n8" class="animable"></path><path d="M110.52,415.3a3.17,3.17,0,0,1-1.68.73,3.11,3.11,0,0,1-1.83.06,7.2,7.2,0,0,1,1.75-.44A6.65,6.65,0,0,1,110.52,415.3Z" style="fill: rgb(38, 50, 56); transform-origin: 108.765px 415.75px;" id="el0fcom8rjzpt4" class="animable"></path><path d="M98.59,413.12c-.1,0,0-.56.17-1.18s.43-1.1.53-1.07,0,.57-.16,1.19S98.69,413.15,98.59,413.12Z" style="fill: rgb(38, 50, 56); transform-origin: 98.9401px 411.995px;" id="elj2r35rpi0dh" class="animable"></path><path d="M100.25,422.74a3.89,3.89,0,0,1,.48-1.6c.37-.83.74-1.48.84-1.43a3.73,3.73,0,0,1-.48,1.59C100.73,422.14,100.35,422.78,100.25,422.74Z" style="fill: rgb(38, 50, 56); transform-origin: 100.91px 421.225px;" id="el1jzp5n69843h" class="animable"></path><path d="M96.14,425.37a3.76,3.76,0,0,1-1.52-.34c-.81-.25-1.47-.48-1.45-.59a2.9,2.9,0,0,1,1.56.22C95.56,424.92,96.18,425.27,96.14,425.37Z" style="fill: rgb(38, 50, 56); transform-origin: 94.6557px 424.892px;" id="elqg3b4yojxtd" class="animable"></path><path d="M98.51,433.21c.07.08-.39.52-1,1s-1.18.73-1.24.64.39-.51,1-1S98.45,433.12,98.51,433.21Z" style="fill: rgb(38, 50, 56); transform-origin: 97.3908px 434.03px;" id="elhmhdlkvgzqf" class="animable"></path><path d="M100.41,441c0,.11-.53.33-1.25.51s-1.32.23-1.34.12.53-.33,1.25-.5S100.39,440.92,100.41,441Z" style="fill: rgb(38, 50, 56); transform-origin: 99.1147px 441.324px;" id="ellzubbwrnh9" class="animable"></path><path d="M110.73,421.83c.06.09-.42.47-1.12.73s-1.31.29-1.33.19.53-.3,1.19-.55S110.68,421.73,110.73,421.83Z" style="fill: rgb(38, 50, 56); transform-origin: 109.507px 422.304px;" id="el8d51csh6r7k" class="animable"></path><path d="M112.21,434c0,.1-.62-.07-1.28-.38s-1.16-.64-1.11-.74.62.08,1.28.39S112.25,433.89,112.21,434Z" style="fill: rgb(38, 50, 56); transform-origin: 111.014px 433.44px;" id="eleqv2jfs9cyu" class="animable"></path><path d="M114.81,442.69a4.12,4.12,0,0,1-1.69-.46c-.89-.35-1.58-.71-1.54-.81a4,4,0,0,1,1.69.45C114.16,442.22,114.85,442.59,114.81,442.69Z" style="fill: rgb(38, 50, 56); transform-origin: 113.195px 442.055px;" id="el1yr9wh7h3eqg" class="animable"></path><path d="M100.83,449.5c0-.1.64-.56,1.44-1.2a7.8,7.8,0,0,1,1.51-1.12c.08.07-.43.78-1.26,1.43A3.5,3.5,0,0,1,100.83,449.5Z" style="fill: rgb(38, 50, 56); transform-origin: 102.309px 448.34px;" id="elxrpnyi8yqjb" class="animable"></path><path d="M107.71,445.08c-.11,0-.26-.57-.52-1.25s-.55-1.22-.46-1.28.54.4.82,1.14S107.81,445.07,107.71,445.08Z" style="fill: rgb(38, 50, 56); transform-origin: 107.245px 443.812px;" id="elvbym78b727" class="animable"></path><path d="M105.89,434.61c-.07.09-.51-.12-1-.47s-.82-.7-.76-.79.51.13,1,.47S106,434.53,105.89,434.61Z" style="fill: rgb(38, 50, 56); transform-origin: 105.016px 433.98px;" id="elach0j8xe9t4" class="animable"></path><path d="M121.92,418.21c.07.09-.37.52-1,1s-1.14.73-1.2.64.37-.51,1-.95S121.86,418.13,121.92,418.21Z" style="fill: rgb(38, 50, 56); transform-origin: 120.821px 419.033px;" id="elz9q7oljuq" class="animable"></path><path d="M124.34,424.82c0,.11-.67.25-1.51.16s-1.47-.38-1.43-.48a4.69,4.69,0,0,1,1.48.09C123.67,424.68,124.33,424.71,124.34,424.82Z" style="fill: rgb(38, 50, 56); transform-origin: 122.869px 424.743px;" id="ellbccoc2an" class="animable"></path><path d="M114,426.3c0,.11-.6.33-1.41.38a2.39,2.39,0,0,1-1.46-.18c0-.11.65-.15,1.43-.2A3.92,3.92,0,0,1,114,426.3Z" style="fill: rgb(38, 50, 56); transform-origin: 112.565px 426.478px;" id="eln7ek39qapr" class="animable"></path><path d="M114.84,420.06c0,.1-.64.12-1.33-.2s-1.1-.81-1-.89.55.25,1.18.53S114.86,420,114.84,420.06Z" style="fill: rgb(38, 50, 56); transform-origin: 113.668px 419.541px;" id="elhgkr2i58mzg" class="animable"></path><path d="M125.23,431.92c-.06.09-.7-.22-1.45-.69s-1.3-.92-1.24-1,.71.21,1.45.68S125.29,431.82,125.23,431.92Z" style="fill: rgb(38, 50, 56); transform-origin: 123.885px 431.076px;" id="elxekkh22vwdl" class="animable"></path><rect x="95.15" y="450.46" width="55.43" height="9.82" style="fill: #070D1E; transform-origin: 122.865px 455.37px;" id="ellbjaj7xxwz" class="animable"></rect><polygon points="99.29 458.33 106.03 487.69 139.07 487.69 146.44 458.33 99.29 458.33" style="fill: #070D1E; transform-origin: 122.865px 473.01px;" id="elo24klt0xn0s" class="animable"></polygon><path d="M150.55,460.29c0,.11-12.5.2-27.92.2s-27.92-.09-27.92-.2,12.5-.19,27.92-.19S150.55,460.19,150.55,460.29Z" style="fill: rgb(38, 50, 56); transform-origin: 122.63px 460.295px;" id="el0kx6mjlhx3pe" class="animable"></path><path d="M119.73,426.52c-.09.06-.47-.39-.85-1s-.61-1.13-.52-1.19.47.38.85,1S119.82,426.46,119.73,426.52Z" style="fill: rgb(38, 50, 56); transform-origin: 119.045px 425.425px;" id="elknudy2h2b7o" class="animable"></path><path d="M119.75,434.42c-.11,0,0-.7.29-1.49s.55-1.4.66-1.37,0,.7-.29,1.49S119.85,434.46,119.75,434.42Z" style="fill: rgb(38, 50, 56); transform-origin: 120.225px 432.99px;" id="elxhp3hv2srso" class="animable"></path><path d="M122.45,442.72c-.09,0-.51-.62-.92-1.48a4.13,4.13,0,0,1-.58-1.65c.1,0,.51.62.93,1.48A4,4,0,0,1,122.45,442.72Z" style="fill: rgb(38, 50, 56); transform-origin: 121.7px 441.155px;" id="el53a4gxsa1dm" class="animable"></path><path d="M116.6,449.4c-.08-.07.25-.59.74-1.15s1-1,1-.9-.25.59-.74,1.15S116.68,449.47,116.6,449.4Z" style="fill: rgb(38, 50, 56); transform-origin: 117.464px 448.372px;" id="el8momsk3bigj" class="animable"></path><path d="M115.37,437.27c0,.11-.55.11-1.19,0s-1.14-.29-1.13-.39.56-.1,1.2,0S115.39,437.17,115.37,437.27Z" style="fill: rgb(38, 50, 56); transform-origin: 114.21px 437.079px;" id="elq50uuh8mem" class="animable"></path></g><g id="freepik--Floor--inject-68" class="animable" style="transform-origin: 250px 487.375px;"><path d="M471.47,487.38c0,.14-99.16.26-221.46.26s-221.48-.12-221.48-.26,99.14-.27,221.48-.27S471.47,487.23,471.47,487.38Z" style="fill: rgb(38, 50, 56); transform-origin: 250px 487.375px;" id="elxn3ml1cf9w" class="animable"></path></g><g id="freepik--Screens--inject-68" class="animable" style="transform-origin: 240.26px 120.295px;"><polygon points="274.12 198.12 280.46 198.1 280.25 123.72 171.92 124.03 172.14 198.41 261.94 198.15 273.36 210.35 274.12 198.12" style="fill: rgb(245, 245, 245); transform-origin: 226.19px 167.035px;" id="elsb6evwmnzim" class="animable"></polygon><path d="M180.26,190.43c-.13,0-.27-12.61-.32-28.17s0-28.19.16-28.19.27,12.62.31,28.18S180.39,190.43,180.26,190.43Z" style="fill: rgb(38, 50, 56); transform-origin: 180.172px 162.25px;" id="eluj2y5pt6fn8" class="animable"></path><path d="M274.25,182.4c0,.13-21.13.3-47.19.37s-47.18,0-47.19-.1,21.13-.3,47.19-.37S274.24,182.27,274.25,182.4Z" style="fill: rgb(235, 235, 235); transform-origin: 227.06px 182.532px;" id="elgvyhcml23h8" class="animable"></path><path d="M274.22,174.13c0,.13-21.13.3-47.18.37s-47.19,0-47.19-.1S201,174.11,227,174,274.22,174,274.22,174.13Z" style="fill: rgb(235, 235, 235); transform-origin: 227.035px 174.242px;" id="el9uormytxo3h" class="animable"></path><path d="M274.2,165.86c0,.13-21.13.3-47.18.38s-47.19,0-47.19-.11,21.12-.29,47.18-.37S274.2,165.73,274.2,165.86Z" style="fill: rgb(235, 235, 235); transform-origin: 227.015px 165.997px;" id="elc8wld6bcjlp" class="animable"></path><path d="M274.17,157.59c0,.14-21.12.3-47.18.38s-47.19,0-47.19-.1,21.13-.3,47.19-.38S274.17,157.46,274.17,157.59Z" style="fill: rgb(235, 235, 235); transform-origin: 226.985px 157.727px;" id="elpq1vkg0sry" class="animable"></path><path d="M274.15,149.33c0,.13-21.13.29-47.18.37s-47.19,0-47.19-.1,21.12-.3,47.19-.37S274.15,149.2,274.15,149.33Z" style="fill: rgb(235, 235, 235); transform-origin: 226.965px 149.464px;" id="elrc3t4fpdph" class="animable"></path><path d="M274.13,141.06c0,.13-21.13.3-47.19.37s-47.18,0-47.18-.1,21.12-.3,47.18-.37S274.13,140.93,274.13,141.06Z" style="fill: rgb(235, 235, 235); transform-origin: 226.945px 141.192px;" id="el20whuyhfk6b" class="animable"></path><path d="M274.1,132.79c0,.13-21.12.3-47.18.37s-47.19,0-47.19-.1,21.12-.3,47.19-.37S274.1,132.66,274.1,132.79Z" style="fill: rgb(235, 235, 235); transform-origin: 226.915px 132.922px;" id="elcne0deoztrs" class="animable"></path><g id="elazjvlyfrsg8"><rect x="186.26" y="177.52" width="6.77" height="12.89" style="fill: #070D1E; transform-origin: 189.645px 183.965px; transform: rotate(-0.17deg);" class="animable" id="ele42cjr0j2vo"></rect></g><g id="elbmyyvjogi3"><rect x="235.41" y="177.38" width="6.77" height="12.89" style="fill: #070D1E; transform-origin: 238.795px 183.825px; transform: rotate(-0.16deg);" class="animable" id="elove1hxuih68"></rect></g><g id="elvvdlyc0y8h"><rect x="199.52" y="168" width="6.77" height="22.36" style="fill: #070D1E; transform-origin: 202.905px 179.18px; transform: rotate(-0.17deg);" class="animable" id="eloh5ppkr7jad"></rect></g><g id="elzyvbt6rwpor"><rect x="224.31" y="162.12" width="6.77" height="28.18" style="fill: #070D1E; transform-origin: 227.695px 176.21px; transform: rotate(-0.16deg);" class="animable" id="elg8tzr3eqcv"></rect></g><g id="elt0q1o0i5vvk"><rect x="212.04" y="145.03" width="6.77" height="45.3" style="fill: #070D1E; transform-origin: 215.425px 167.68px; transform: rotate(-0.17deg);" class="animable" id="elhm1gx5objz7"></rect></g><g id="elg2d7o26tyej"><rect x="248.49" y="153.3" width="6.77" height="36.92" style="fill: #070D1E; transform-origin: 251.875px 171.76px; transform: rotate(0deg);" class="animable" id="elme3i0bijuz"></rect></g><path d="M263.37,190.19c0,.13-18.57.29-41.47.36s-41.48,0-41.48-.12,18.57-.29,41.48-.35S263.37,190.06,263.37,190.19Z" style="fill: rgb(38, 50, 56); transform-origin: 221.895px 190.315px;" id="elv9yuc35w6p" class="animable"></path><polygon points="159.51 85.81 30.46 86.05 30.46 188.03 142.56 188.03 153.59 199.82 154.32 188.03 159.43 188.03 159.51 85.81" style="fill: rgb(245, 245, 245); transform-origin: 94.985px 142.815px;" id="elelhgobi8yx8" class="animable"></polygon><path d="M150.76,178.46l-.44,0H149l-5,0-18.41.05-60.73.06H38.51v-.17c0-17.35,0-32.28.06-42.88,0-5.28,0-9.49,0-12.38,0-1.44,0-2.55,0-3.31,0-.37,0-.65,0-.85s0-.29,0-.29,0,.1,0,.29,0,.48,0,.85c0,.76,0,1.87,0,3.31,0,2.89,0,7.1.05,12.38,0,10.6,0,25.53.06,42.88l-.17-.17h26.2l60.73.05,18.41.06,5,0,1.31,0Z" style="fill: rgb(38, 50, 56); transform-origin: 94.635px 148.63px;" id="eln5y5mnnz7j" class="animable"></path><rect x="47.78" y="163.71" width="11.32" height="11.32" style="fill: #070D1E; transform-origin: 53.44px 169.37px;" id="elp5rjvdojrwb" class="animable"></rect><rect x="64.38" y="155.61" width="11.32" height="19.42" style="fill: #070D1E; transform-origin: 70.04px 165.32px;" id="elimgeql64me" class="animable"></rect><rect x="81.05" y="146.42" width="11.32" height="28.61" style="fill: #070D1E; transform-origin: 86.71px 160.725px;" id="eld0nxccv2q69" class="animable"></rect><rect x="97.2" y="136.18" width="11.32" height="38.85" style="fill: #070D1E; transform-origin: 102.86px 155.605px;" id="elcssgnje2cmc" class="animable"></rect><rect x="113.73" y="123.08" width="11.32" height="51.95" style="fill: #070D1E; transform-origin: 119.39px 149.055px;" id="elr6qn7gy0yjb" class="animable"></rect><rect x="130.14" y="113.08" width="11.32" height="61.41" style="fill: #070D1E; transform-origin: 135.8px 143.785px;" id="elux0kkt8r21" class="animable"></rect><g id="eljjvhl5575lo"><g style="opacity: 0.5; transform-origin: 70.04px 165.32px;" class="animable" id="elsvsibw6pycs"><rect x="64.38" y="155.61" width="11.32" height="19.42" style="fill: rgb(255, 255, 255); transform-origin: 70.04px 165.32px;" id="elkenwmpfnpf" class="animable"></rect></g></g><g id="el2wxilbdbiot"><g style="opacity: 0.5; transform-origin: 102.86px 155.605px;" class="animable" id="eloba581dhpd8"><rect x="97.2" y="136.18" width="11.32" height="38.85" style="fill: rgb(255, 255, 255); transform-origin: 102.86px 155.605px;" id="elmmwczn3c1c" class="animable"></rect></g></g><g id="elbbptjtktdvs"><g style="opacity: 0.5; transform-origin: 135.8px 143.785px;" class="animable" id="el3kkrfsk2jy6"><rect x="130.14" y="113.08" width="11.32" height="61.41" style="fill: rgb(255, 255, 255); transform-origin: 135.8px 143.785px;" id="el3sczazrwrnu" class="animable"></rect></g></g><path d="M47.78,152.1l.15-.11.44-.31,1.72-1.15,6.49-4.28,22.47-14.68.26-.17v.31c0,1.6,0,3.32,0,5.07l-.27-.15,8.85-5.93,31.24-20.88,9.5-6.29,2.59-1.7.67-.43.24-.14s-.07.06-.22.17l-.65.46-2.56,1.75L119.28,110,88.1,131l-8.86,5.93-.27.18v-5.39l.26.14L56.7,146.43l-6.54,4.19-1.76,1.11-.46.28Z" style="fill: rgb(38, 50, 56); transform-origin: 89.955px 126.68px;" id="elgc7316970oi" class="animable"></path><path d="M132.14,106.05a6.12,6.12,0,0,1-.12-1.39c0-.87-.05-2.07-.05-3.42l.17.17h-.43c-1.45,0-2.76,0-3.71,0a7.51,7.51,0,0,1-1.54-.12,6.33,6.33,0,0,1,1.54-.13c.95,0,2.26,0,3.71,0h.61v.18c0,1.35,0,2.55-.06,3.42A5.48,5.48,0,0,1,132.14,106.05Z" style="fill: rgb(38, 50, 56); transform-origin: 129.39px 103.603px;" id="el1h3spd0x3ej" class="animable"></path><rect x="30.46" y="85.49" width="129.05" height="9.5" style="fill: rgb(38, 50, 56); transform-origin: 94.985px 90.24px;" id="el8gfngavsoz3" class="animable"></rect><path d="M37.86,89.89a1.62,1.62,0,0,1-3.23,0,1.62,1.62,0,1,1,3.23,0Z" style="fill: rgb(250, 250, 250); transform-origin: 36.245px 89.7628px;" id="eln3bzp42cfi" class="animable"></path><path d="M43,89.89a1.61,1.61,0,1,1-1.61-1.62A1.61,1.61,0,0,1,43,89.89Z" style="fill: rgb(250, 250, 250); transform-origin: 41.39px 89.88px;" id="elrzrpykjy3d" class="animable"></path><circle cx="46.62" cy="89.89" r="1.61" style="fill: rgb(250, 250, 250); transform-origin: 46.62px 89.89px;" id="elt546gglfgar" class="animable"></circle><polygon points="405.45 21.84 209.76 21.84 209.76 112.31 354.99 112.31 355.79 125.07 367.73 112.31 405.45 112.31 405.45 21.84" style="fill: rgb(245, 245, 245); transform-origin: 307.605px 73.455px;" id="elcfd4l6npv4" class="animable"></polygon><path d="M223.53,84.33v2.86h-.29v-2.6h-.68v-.26Z" style="fill: rgb(38, 50, 56); transform-origin: 223.045px 85.76px;" id="elklffdcxnper" class="animable"></path><path d="M224.21,85.76c0-.91.48-1.45,1.14-1.45s1.15.54,1.15,1.45-.49,1.45-1.15,1.45S224.21,86.67,224.21,85.76Zm2,0c0-.76-.34-1.18-.84-1.18s-.84.42-.84,1.18.35,1.18.84,1.18S226.19,86.52,226.19,85.76Z" style="fill: rgb(38, 50, 56); transform-origin: 225.355px 85.76px;" id="el7agy98av86" class="animable"></path><path d="M224.69,69.17v.26h-2v-.21l1.18-1.16c.33-.32.39-.51.39-.71s-.24-.53-.67-.53a1,1,0,0,0-.78.32L222.6,67a1.26,1.26,0,0,1,1-.41c.58,0,.95.29.95.77a1.18,1.18,0,0,1-.47.89l-1,1Z" style="fill: rgb(38, 50, 56); transform-origin: 223.645px 68.0091px;" id="elv3hghadqusc" class="animable"></path><path d="M225,68c0-.91.48-1.45,1.14-1.45s1.14.54,1.14,1.45-.48,1.45-1.14,1.45S225,68.91,225,68Zm2,0c0-.76-.34-1.18-.84-1.18s-.84.42-.84,1.18.35,1.18.84,1.18S227,68.76,227,68Z" style="fill: rgb(38, 50, 56); transform-origin: 226.14px 68px;" id="el02xwhi8aewzy" class="animable"></path><path d="M224.63,50.85c0,.48-.35.84-1,.84a1.51,1.51,0,0,1-1-.36l.15-.24a1.24,1.24,0,0,0,.88.33c.48,0,.74-.22.74-.57s-.25-.57-.78-.57h-.2v-.22l.79-1h-1.46v-.26h1.84V49l-.81,1C224.32,50.07,224.63,50.39,224.63,50.85Z" style="fill: rgb(38, 50, 56); transform-origin: 223.63px 50.2451px;" id="elsgr2xeuc2bh" class="animable"></path><path d="M225,50.24c0-.91.48-1.45,1.14-1.45s1.14.54,1.14,1.45-.48,1.45-1.14,1.45S225,51.15,225,50.24Zm2,0c0-.76-.34-1.18-.84-1.18s-.84.42-.84,1.18.35,1.18.84,1.18S227,51,227,50.24Z" style="fill: rgb(38, 50, 56); transform-origin: 226.14px 50.24px;" id="eld4crdeo7hbe" class="animable"></path><path d="M236.14,95.13c0-.91.48-1.45,1.14-1.45s1.14.54,1.14,1.45-.48,1.45-1.14,1.45S236.14,96,236.14,95.13Zm2,0c0-.76-.34-1.18-.84-1.18s-.84.42-.84,1.18.34,1.18.84,1.18S238.12,95.89,238.12,95.13Z" style="fill: rgb(38, 50, 56); transform-origin: 237.28px 95.13px;" id="elyb9ki0ra0n" class="animable"></path><path d="M257.28,93.7v2.86H257V94h-.68V93.7Z" style="fill: rgb(38, 50, 56); transform-origin: 256.8px 95.13px;" id="elefc4owrp56h" class="animable"></path><path d="M279.56,96.3v.26h-2v-.21l1.19-1.16c.32-.32.38-.51.38-.71s-.23-.53-.67-.53a1,1,0,0,0-.78.31l-.21-.17a1.27,1.27,0,0,1,1-.41c.58,0,.94.29.94.77a1.15,1.15,0,0,1-.47.89l-1,1Z" style="fill: rgb(38, 50, 56); transform-origin: 278.515px 95.1192px;" id="elwh63p675jts" class="animable"></path><path d="M300.63,95.74c0,.47-.35.84-1,.84a1.47,1.47,0,0,1-1-.37l.14-.23a1.29,1.29,0,0,0,.89.33c.47,0,.73-.22.73-.57s-.24-.57-.77-.57h-.2V95l.79-1h-1.46V93.7h1.84v.21l-.81,1C300.32,95,300.63,95.28,300.63,95.74Z" style="fill: rgb(38, 50, 56); transform-origin: 299.63px 95.1401px;" id="elovb5qkl0b0g" class="animable"></path><path d="M322.29,95.81h-.57v.75h-.3v-.75h-1.61v-.22l1.52-1.89h.32l-1.46,1.85h1.24v-.67h.29v.67h.57Z" style="fill: rgb(38, 50, 56); transform-origin: 321.05px 95.13px;" id="eld37izl3mntu" class="animable"></path><path d="M342.92,95.72c0,.48-.33.86-1,.86a1.47,1.47,0,0,1-1-.37L341,96a1.23,1.23,0,0,0,.87.33c.49,0,.75-.23.75-.58s-.23-.6-1-.6h-.61l.15-1.43h1.56V94h-1.3l-.1.91h.37C342.6,94.87,342.92,95.21,342.92,95.72Z" style="fill: rgb(38, 50, 56); transform-origin: 341.92px 95.1501px;" id="elrdw557h1r9h" class="animable"></path><path d="M364.26,95.7a.89.89,0,0,1-1,.88c-.76,0-1.17-.52-1.17-1.43s.53-1.47,1.31-1.47a1.3,1.3,0,0,1,.67.15l-.12.24a1,1,0,0,0-.55-.14c-.62,0-1,.4-1,1.18a2,2,0,0,0,0,.23.9.9,0,0,1,.87-.49A.87.87,0,0,1,364.26,95.7Zm-.29,0c0-.37-.28-.61-.72-.61a.66.66,0,0,0-.74.62c0,.32.27.61.76.61A.63.63,0,0,0,364,95.71Z" style="fill: rgb(38, 50, 56); transform-origin: 363.175px 95.1327px;" id="elule3znyw3g" class="animable"></path><path d="M385.25,93.7v.21l-1.2,2.65h-.31l1.17-2.6h-1.47v.54h-.29v-.8Z" style="fill: rgb(38, 50, 56); transform-origin: 384.2px 95.13px;" id="elkgx9hoda4z" class="animable"></path><path d="M385.4,85.9c0,.15-33.06.27-73.83.27s-73.84-.12-73.84-.27,33.06-.28,73.84-.28S385.4,85.74,385.4,85.9Z" style="fill: rgb(38, 50, 56); transform-origin: 311.565px 85.895px;" id="elbhl5z1ebja4" class="animable"></path><path d="M385.4,68.05c0,.15-33.06.27-73.83.27s-73.84-.12-73.84-.27,33.06-.28,73.84-.28S385.4,67.89,385.4,68.05Z" style="fill: rgb(38, 50, 56); transform-origin: 311.565px 68.045px;" id="elmnv81vpmfke" class="animable"></path><path d="M385.4,50.2c0,.15-33.06.27-73.83.27s-73.84-.12-73.84-.27,33.06-.28,73.84-.28S385.4,50,385.4,50.2Z" style="fill: rgb(38, 50, 56); transform-origin: 311.565px 50.195px;" id="el6jevvtsqaxn" class="animable"></path><path d="M237.73,85.64a.95.95,0,1,1-.95-1A.94.94,0,0,1,237.73,85.64Z" style="fill: #070D1E; transform-origin: 236.782px 85.59px;" id="elcqonu81gxhn" class="animable"></path><path d="M259,85.64a.95.95,0,1,1-.94-1A.94.94,0,0,1,259,85.64Z" style="fill: #070D1E; transform-origin: 258.052px 85.59px;" id="el1iv23d4sfat" class="animable"></path><path d="M280.2,85.64a.95.95,0,1,1-.95-1A.95.95,0,0,1,280.2,85.64Z" style="fill: #070D1E; transform-origin: 279.251px 85.59px;" id="elve45fm39svh" class="animable"></path><path d="M301.43,85.64a.95.95,0,1,1-.95-1A.95.95,0,0,1,301.43,85.64Z" style="fill: #070D1E; transform-origin: 300.481px 85.59px;" id="elplo8pplsj5b" class="animable"></path><path d="M322.66,85.64a.95.95,0,1,1-1-1A.95.95,0,0,1,322.66,85.64Z" style="fill: #070D1E; transform-origin: 321.711px 85.5886px;" id="elnvqa1iyt7qk" class="animable"></path><path d="M365.12,85.64a.95.95,0,1,1-.95-1A.94.94,0,0,1,365.12,85.64Z" style="fill: #070D1E; transform-origin: 364.172px 85.59px;" id="elc4a1z9kt61e" class="animable"></path><path d="M343.89,85.64a.95.95,0,1,1-.95-1A.95.95,0,0,1,343.89,85.64Z" style="fill: #070D1E; transform-origin: 342.941px 85.59px;" id="el78rb27gcn0k" class="animable"></path><path d="M386.35,85.64a1,1,0,1,1-1-1A.94.94,0,0,1,386.35,85.64Z" style="fill: #070D1E; transform-origin: 385.351px 85.639px;" id="elrlaig2epod9" class="animable"></path><path d="M247.41,85.9a.63.63,0,1,1-.62-.63A.62.62,0,0,1,247.41,85.9Z" style="fill: rgb(224, 224, 224); transform-origin: 246.78px 85.8999px;" id="elvz9m20kpnpn" class="animable"></path><path d="M268.72,85.9a.63.63,0,1,1-.62-.63A.62.62,0,0,1,268.72,85.9Z" style="fill: rgb(224, 224, 224); transform-origin: 268.09px 85.8999px;" id="eldmid1qw7w" class="animable"></path><path d="M290,85.9a.63.63,0,1,1-.62-.63A.62.62,0,0,1,290,85.9Z" style="fill: rgb(224, 224, 224); transform-origin: 289.37px 85.8999px;" id="elrk6y60ir2b" class="animable"></path><path d="M311.34,85.9a.62.62,0,0,1-.62.62.63.63,0,0,1,0-1.25A.63.63,0,0,1,311.34,85.9Z" style="fill: rgb(224, 224, 224); transform-origin: 310.755px 85.895px;" id="el2o7xzhxko5g" class="animable"></path><path d="M332.65,85.9a.62.62,0,1,1-.62-.63A.62.62,0,0,1,332.65,85.9Z" style="fill: rgb(224, 224, 224); transform-origin: 332.03px 85.89px;" id="el2j2svqvnpi9" class="animable"></path><path d="M354,85.9a.62.62,0,1,1-.62-.63A.62.62,0,0,1,354,85.9Z" style="fill: rgb(224, 224, 224); transform-origin: 353.38px 85.89px;" id="elh3w2rf7w5ud" class="animable"></path><path d="M375.27,85.9a.62.62,0,0,1-.62.62.63.63,0,1,1,.62-.62Z" style="fill: rgb(224, 224, 224); transform-origin: 374.64px 85.8901px;" id="elhfqh6zmgdop" class="animable"></path><path d="M260.34,78A2.33,2.33,0,1,1,258,75.68,2.32,2.32,0,0,1,260.34,78Z" style="fill: #070D1E; transform-origin: 258.01px 78.0099px;" id="el5l85d8t16g5" class="animable"></path><path d="M278.87,67.07a2.33,2.33,0,1,1-2.33-2.32A2.33,2.33,0,0,1,278.87,67.07Z" style="fill: #070D1E; transform-origin: 276.54px 67.08px;" id="el8guyhx65kmw" class="animable"></path><path d="M301.86,68.05a2.33,2.33,0,1,1-2.33-2.33A2.33,2.33,0,0,1,301.86,68.05Z" style="fill: #070D1E; transform-origin: 299.53px 68.05px;" id="elvgd9kgp06up" class="animable"></path><path d="M324.3,48.18A2.33,2.33,0,1,1,322,45.85,2.32,2.32,0,0,1,324.3,48.18Z" style="fill: #070D1E; transform-origin: 321.97px 48.1798px;" id="elvha5sq5oyv" class="animable"></path><path d="M345.27,60.81a2.33,2.33,0,1,1-2.33-2.32A2.33,2.33,0,0,1,345.27,60.81Z" style="fill: #070D1E; transform-origin: 342.94px 60.82px;" id="el7afonefondx" class="animable"></path><path d="M366.5,64.18a2.33,2.33,0,1,1-2.33-2.33A2.32,2.32,0,0,1,366.5,64.18Z" style="fill: #070D1E; transform-origin: 364.17px 64.18px;" id="elvft0flbywnj" class="animable"></path><path d="M386.35,78a3.13,3.13,0,0,1-.54,0,11,11,0,0,1-1.59-.21,11.92,11.92,0,0,1-5.52-2.62A11.58,11.58,0,0,1,376,71.64a25.9,25.9,0,0,0-2.84-4.4,9.39,9.39,0,0,0-4.8-3.35,6.12,6.12,0,0,0-3.17.12,8.67,8.67,0,0,0-2.95,1.66c-1.81,1.51-3.14,3.66-4.89,5.61a9.8,9.8,0,0,1-3.19,2.48,6.39,6.39,0,0,1-4.19.35,5.25,5.25,0,0,1-3.19-2.93,20.22,20.22,0,0,1-1.38-4.24,24.18,24.18,0,0,0-1.27-4.3A3.31,3.31,0,0,0,342.76,61a4.45,4.45,0,0,0-2.15-.42,36.66,36.66,0,0,0-4.67.82,13.34,13.34,0,0,1-2.46.29,5.56,5.56,0,0,1-2.5-.49,5,5,0,0,1-2-1.67,12,12,0,0,1-1.22-2.26c-.67-1.57-1.12-3.21-1.73-4.8a12.11,12.11,0,0,0-1.12-2.25,4.16,4.16,0,0,0-1.85-1.53c-.19-.06-.38-.13-.58-.18l-.61-.05a2.09,2.09,0,0,0-1.13.23,4.67,4.67,0,0,0-1.7,1.77,21.88,21.88,0,0,0-2,4.89c-.5,1.71-.93,3.46-1.34,5.23-.68,2.93-1.28,5.85-2,8.71a43.6,43.6,0,0,1-1.3,4.21,11,11,0,0,1-2.21,3.84,3,3,0,0,1-2.09.92,4.11,4.11,0,0,1-2.15-.65,10.09,10.09,0,0,1-3-3.05,36.72,36.72,0,0,1-3.64-7.39c-1-2.45-2.16-4.88-4.06-6.54A7.61,7.61,0,0,0,288.39,59a11.54,11.54,0,0,0-3.25,1.43,21.5,21.5,0,0,0-2.83,2.05,38,38,0,0,0-4.74,4.76h0a51.22,51.22,0,0,1-7,5.82,34.09,34.09,0,0,1-7.19,3.9,15.88,15.88,0,0,1-7,1.17,24.82,24.82,0,0,1-5.85-1.42,54.43,54.43,0,0,1-7.61-3.48c-.84-.46-1.48-.83-1.9-1.09s-.62-.4-.62-.4l.66.35,1.92,1a60,60,0,0,0,7.63,3.35,24.34,24.34,0,0,0,5.8,1.35,15.52,15.52,0,0,0,6.88-1.2,34.24,34.24,0,0,0,7.08-3.88,50.78,50.78,0,0,0,6.92-5.81v0A38.31,38.31,0,0,1,282,62.09a23.63,23.63,0,0,1,2.88-2.1,12.08,12.08,0,0,1,3.38-1.49,8.11,8.11,0,0,1,7.28,1.75c2,1.76,3.19,4.26,4.22,6.73a36.87,36.87,0,0,0,3.6,7.29,9.78,9.78,0,0,0,2.84,2.89,3.76,3.76,0,0,0,1.88.57A2.52,2.52,0,0,0,309.8,77a10.49,10.49,0,0,0,2.07-3.63c.51-1.35.91-2.75,1.29-4.17.75-2.83,1.35-5.75,2-8.69.41-1.77.84-3.53,1.35-5.26a22.25,22.25,0,0,1,2-5,5.07,5.07,0,0,1,1.92-2,2.76,2.76,0,0,1,1.4-.29l.7.07c.22,0,.45.13.67.2a4.64,4.64,0,0,1,2.1,1.73,12.47,12.47,0,0,1,1.18,2.37c.62,1.61,1.06,3.26,1.72,4.78s1.47,3,2.93,3.66a7.71,7.71,0,0,0,4.64.17,36,36,0,0,1,4.75-.82,5.06,5.06,0,0,1,2.41.48,3.93,3.93,0,0,1,1.57,1.86,24.58,24.58,0,0,1,1.28,4.4A20.34,20.34,0,0,0,347.18,71a4.82,4.82,0,0,0,2.9,2.7,6,6,0,0,0,3.88-.31A9.41,9.41,0,0,0,357,71c1.73-1.9,3.08-4.06,5-5.62a9.08,9.08,0,0,1,3.09-1.72,6.44,6.44,0,0,1,3.37-.1A9.72,9.72,0,0,1,373.38,67a25.58,25.58,0,0,1,2.84,4.48A11.29,11.29,0,0,0,378.84,75a12.14,12.14,0,0,0,5.4,2.67,12.89,12.89,0,0,0,1.57.27A3.73,3.73,0,0,1,386.35,78Z" style="fill: #070D1E; transform-origin: 313.375px 63.1077px;" id="eld74amtve6eu" class="animable"></path><path d="M260.57,38c0,.16-8.25.28-18.41.28s-18.41-.12-18.41-.28,8.24-.27,18.41-.27S260.57,37.81,260.57,38Z" style="fill: rgb(38, 50, 56); transform-origin: 242.16px 38.005px;" id="elf1ty6ynjkem" class="animable"></path><polygon points="450.06 129.19 369.16 129.19 369.16 205.21 378.36 205.21 378.36 218.75 391.03 205.21 450.06 205.21 450.06 129.19" style="fill: rgb(245, 245, 245); transform-origin: 409.61px 173.97px;" id="elrpy5x5nl9w" class="animable"></polygon><path d="M409.25,137.8a25,25,0,1,0,25,25A25,25,0,0,0,409.25,137.8Zm.38,39.92A15.34,15.34,0,1,1,425,162.39,15.33,15.33,0,0,1,409.63,177.72Z" style="fill: rgb(38, 50, 56); transform-origin: 409.25px 162.8px;" id="elt2djlcx8dqa" class="animable"></path><path d="M409.64,137.81c0,2.66,0,6.24,0,9.24A15.33,15.33,0,0,1,425,162.39a15.12,15.12,0,0,1-.72,4.64l9.05,2.46a25,25,0,0,0-23.65-31.68Z" style="fill: #070D1E; transform-origin: 421.94px 153.65px;" id="elxhalzqr6b7" class="animable"></path><path d="M394.3,162.39a15.33,15.33,0,0,1,9.09-14l-3.84-8.62a25,25,0,0,0-15.26,23c0,.35,0,.7,0,1.05h10.05A13.37,13.37,0,0,1,394.3,162.39Z" style="fill: rgb(69, 90, 100); transform-origin: 393.84px 151.795px;" id="el3vcbbr3fffm" class="animable"></path><path d="M409.63,177.72a15,15,0,0,1-3.24-.35c-.39,2.23-1.12,6.54-1.69,9.93a25.33,25.33,0,0,0,4.55.42,25,25,0,0,0,24-18.23L424.24,167A15.33,15.33,0,0,1,409.63,177.72Z" style="fill: #070D1E; transform-origin: 418.975px 177.36px;" id="els5hc2zg2gjh" class="animable"></path><g id="ell80snai5y9o"><g style="opacity: 0.3; transform-origin: 418.975px 177.36px;" class="animable" id="elqbahakp9b9o"><path d="M409.63,177.72a15,15,0,0,1-3.24-.35c-.39,2.23-1.12,6.54-1.69,9.93a25.33,25.33,0,0,0,4.55.42,25,25,0,0,0,24-18.23L424.24,167A15.33,15.33,0,0,1,409.63,177.72Z" id="eleff73j2fcnr" class="animable" style="transform-origin: 418.975px 177.36px;"></path></g></g><path d="M406.32,163.63h-.93v1.19h-1.28v-1.19h-3.05v-.89l2.67-3.59h1.38l-2.48,3.41h1.52V161.5h1.24v1.06h.93Z" style="fill: rgb(38, 50, 56); transform-origin: 403.69px 161.985px;" id="elts8cxuh2m8n" class="animable"></path><path d="M406.71,162c0-1.87,1-2.93,2.43-2.93s2.43,1.06,2.43,2.93-1,2.94-2.43,2.94S406.71,163.85,406.71,162Zm3.54,0c0-1.29-.46-1.82-1.11-1.82S408,160.69,408,162s.46,1.83,1.11,1.83S410.25,163.27,410.25,162Z" style="fill: rgb(38, 50, 56); transform-origin: 409.14px 162.005px;" id="elrcwvywsrex" class="animable"></path><path d="M412.11,160.64a1.41,1.41,0,1,1,1.41,1.57A1.41,1.41,0,0,1,412.11,160.64Zm2,0c0-.6-.23-.89-.59-.89s-.59.3-.59.89.24.9.59.9S414.11,161.25,414.11,160.64Zm2.79-1.49h1L414,164.82h-1Zm-.93,4.17a1.41,1.41,0,1,1,1.4,1.56A1.4,1.4,0,0,1,416,163.32Zm2,0c0-.6-.23-.9-.59-.9s-.59.29-.59.9.24.9.59.9S418,163.92,418,163.32Z" style="fill: rgb(38, 50, 56); transform-origin: 415.441px 162.015px;" id="elcxarlkk1s7k" class="animable"></path><path d="M429.91,194c0,.13-9.25.24-20.66.24s-20.65-.11-20.65-.24,9.25-.24,20.65-.24S429.91,193.89,429.91,194Z" style="fill: rgb(38, 50, 56); transform-origin: 409.255px 194px;" id="elfiyon8x8thc" class="animable"></path><path d="M420.71,197.81c0,.13-5.13.24-11.46.24s-11.45-.11-11.45-.24,5.13-.23,11.45-.23S420.71,197.68,420.71,197.81Z" style="fill: rgb(38, 50, 56); transform-origin: 409.255px 197.815px;" id="elioro563owq9" class="animable"></path></g><g id="freepik--Desk--inject-68" class="animable" style="transform-origin: 185.74px 342.52px;"><rect x="39.77" y="325.17" width="291.94" height="12.44" style="fill: rgb(69, 90, 100); transform-origin: 185.74px 331.39px;" id="elgdoyp1spqq" class="animable"></rect><path d="M101.61,325.36s0,.05-.09.13-.16.22-.3.38A6.57,6.57,0,0,1,99.75,327a8.26,8.26,0,0,1-2.82.92,20.39,20.39,0,0,1-3.93.17,39,39,0,0,1-4.74-.53,44,44,0,0,0-5.39-.63,34.32,34.32,0,0,0-12.14,2.3c-4.17,1.45-8.06,3.1-11.78,4.1a32.7,32.7,0,0,1-5.37,1,23.79,23.79,0,0,1-4.78,0,16.5,16.5,0,0,1-6.54-2,10.51,10.51,0,0,1-2-1.48l.14.09.39.29a13,13,0,0,0,1.57,1,16.72,16.72,0,0,0,6.5,1.91,23.25,23.25,0,0,0,4.71,0A33.35,33.35,0,0,0,58.86,333c3.69-1,7.56-2.67,11.75-4.12a34.16,34.16,0,0,1,12.27-2.29,45.59,45.59,0,0,1,5.43.66,39.15,39.15,0,0,0,4.7.57,20.28,20.28,0,0,0,3.89-.11,8.45,8.45,0,0,0,2.78-.85A7.27,7.27,0,0,0,101.61,325.36Z" style="fill: rgb(38, 50, 56); transform-origin: 70.935px 329.905px;" id="elorce5j4c7t" class="animable"></path><path d="M69.68,325.55a7.36,7.36,0,0,1-.88.73A19.24,19.24,0,0,1,66.13,328a23.29,23.29,0,0,1-4.35,1.73,24.86,24.86,0,0,1-5.69.87,22.31,22.31,0,0,1-10.18-2.05,6.53,6.53,0,0,1-2.46-1.95,3.78,3.78,0,0,1-.4-.75,1,1,0,0,1-.07-.29,8.1,8.1,0,0,0,.59,1A6.67,6.67,0,0,0,46,328.28a23,23,0,0,0,10,1.92A23.87,23.87,0,0,0,66,327.73a24.6,24.6,0,0,0,2.7-1.56A6.45,6.45,0,0,1,69.68,325.55Z" style="fill: rgb(38, 50, 56); transform-origin: 56.33px 328.082px;" id="el0r2lx8wi2x8" class="animable"></path><path d="M138.18,333.43a3.05,3.05,0,0,1,.45.16,9.65,9.65,0,0,0,1.35.35,8.14,8.14,0,0,0,5.11-.78v.16a12.41,12.41,0,0,0-6.34-2.41A12.59,12.59,0,0,0,130.5,333a1.28,1.28,0,0,0-.64.81.87.87,0,0,0,.55.8,3.77,3.77,0,0,0,1.13.38l1.24.28c1.68.36,3.4.72,5.19,1a32.23,32.23,0,0,0,5.51.36,20.82,20.82,0,0,0,2.83-.26c.47-.08.94-.17,1.41-.29a7.17,7.17,0,0,0,1.36-.43,4.5,4.5,0,0,0,1.77-1.24,2,2,0,0,0,.34-1.92A3.37,3.37,0,0,0,149.8,331a11.13,11.13,0,0,0-1.94-.92,27.1,27.1,0,0,0-8.11-1.64,34.67,34.67,0,0,0-22.17,6.53c-.89.67-1.58,1.2-2,1.59l-.52.42-.18.14.16-.16c.12-.12.28-.27.49-.45a25.19,25.19,0,0,1,2-1.65,33.49,33.49,0,0,1,8.32-4.56,34.51,34.51,0,0,1,14-2.18,27.35,27.35,0,0,1,8.22,1.64,11.79,11.79,0,0,1,2,.95,3.62,3.62,0,0,1,1.53,1.68,2.27,2.27,0,0,1-.39,2.25,4.91,4.91,0,0,1-1.9,1.35,7.41,7.41,0,0,1-1.43.45c-.47.12-1,.21-1.43.29a20.17,20.17,0,0,1-2.88.27,31.79,31.79,0,0,1-5.57-.38c-1.8-.26-3.54-.63-5.21-1l-1.24-.28a4.23,4.23,0,0,1-1.22-.43,1.57,1.57,0,0,1-.52-.44.93.93,0,0,1-.18-.67,1.56,1.56,0,0,1,.77-1,12.83,12.83,0,0,1,8.45-2.09,12.46,12.46,0,0,1,6.43,2.51l.12.09-.14.07A8.17,8.17,0,0,1,140,334,6.18,6.18,0,0,1,138.18,333.43Z" style="fill: rgb(38, 50, 56); transform-origin: 133.311px 332.596px;" id="el2mgq7nul7tl" class="animable"></path><path d="M175.75,325.68a1.87,1.87,0,0,1,.29.63,4.68,4.68,0,0,1,.19,1.86,9.1,9.1,0,0,1-2.84,5.43,14.3,14.3,0,0,1-2.66,2.2,11.63,11.63,0,0,1-2.56,1.21,12.57,12.57,0,0,1-1.86.46,2.19,2.19,0,0,1-.7,0c0-.06,1-.19,2.47-.74a12.75,12.75,0,0,0,2.47-1.25,14.45,14.45,0,0,0,2.57-2.17,9.29,9.29,0,0,0,2.86-5.21A6.83,6.83,0,0,0,175.75,325.68Z" style="fill: rgb(38, 50, 56); transform-origin: 170.932px 331.589px;" id="eluyfm5poys" class="animable"></path><path d="M228.17,337a14.53,14.53,0,0,0-1.34-1.27,9.57,9.57,0,0,0-4.56-2,10.3,10.3,0,0,0-3.48.1,15.13,15.13,0,0,1-4.07.36,8.23,8.23,0,0,1-4.06-1.93,14,14,0,0,0-4.07-2.36,15.33,15.33,0,0,0-9.06-.13,21.53,21.53,0,0,0-6.69,3.3,36,36,0,0,0-3.89,3.23l-1,.95a1.84,1.84,0,0,1-.36.32s.1-.13.31-.37l.94-1a33.71,33.71,0,0,1,3.84-3.33,21.62,21.62,0,0,1,6.75-3.42,15.62,15.62,0,0,1,9.27.12,14.28,14.28,0,0,1,4.17,2.41,7.88,7.88,0,0,0,3.88,1.89,14.81,14.81,0,0,0,4-.33,10.75,10.75,0,0,1,3.57-.05,9.61,9.61,0,0,1,4.62,2.14A6,6,0,0,1,228.17,337Z" style="fill: rgb(38, 50, 56); transform-origin: 206.88px 333.188px;" id="elad2zngo0ag6" class="animable"></path><path d="M275,325.29a2.51,2.51,0,0,1-.32.43,11.63,11.63,0,0,1-1,1.15,26.13,26.13,0,0,1-4.26,3.69,34.18,34.18,0,0,1-7.39,4,31.32,31.32,0,0,1-4.77,1.48,25.57,25.57,0,0,1-5.33.67,27.15,27.15,0,0,1-10.12-2,33.84,33.84,0,0,1-7.36-4.07,28,28,0,0,1-4.23-3.72c-.47-.47-.77-.89-1-1.15a2.51,2.51,0,0,1-.32-.43,4.36,4.36,0,0,1,.37.38c.25.25.57.65,1.05,1.11a31.1,31.1,0,0,0,4.28,3.61,35,35,0,0,0,7.33,4,27.06,27.06,0,0,0,10,2,25,25,0,0,0,5.26-.66,31.13,31.13,0,0,0,4.73-1.44,35.46,35.46,0,0,0,7.37-3.9,28.55,28.55,0,0,0,4.3-3.58c.49-.45.8-.86,1.05-1.11A4.36,4.36,0,0,1,275,325.29Z" style="fill: rgb(38, 50, 56); transform-origin: 251.95px 331px;" id="elqvduabeyq5" class="animable"></path><path d="M268.29,325.17s-.07.08-.24.2-.42.3-.76.5a31.74,31.74,0,0,1-2.92,1.61,30.86,30.86,0,0,1-4.62,1.83,20.62,20.62,0,0,1-6,1A25.38,25.38,0,0,1,243,327.68a22.52,22.52,0,0,1-2.89-1.66c-.34-.21-.57-.4-.74-.52s-.25-.2-.24-.21.38.22,1.05.62a28.84,28.84,0,0,0,2.94,1.55A26.21,26.21,0,0,0,253.72,330a21.22,21.22,0,0,0,5.93-1,35.27,35.27,0,0,0,4.6-1.75c1.28-.59,2.28-1.12,3-1.51A11.74,11.74,0,0,1,268.29,325.17Z" style="fill: rgb(38, 50, 56); transform-origin: 253.71px 327.74px;" id="elr3lbw5ztqn" class="animable"></path><path d="M298,326.45h-.34l-1-.06-.68-.05h-.83c-.59,0-1.26,0-2,0l-1.16.06-1.25.14c-.87.07-1.78.27-2.75.43a43.49,43.49,0,0,0-6.1,1.77,44.19,44.19,0,0,0-5.72,2.74c-.82.52-1.63,1-2.32,1.49l-1,.72-.9.71c-.59.45-1.08.9-1.51,1.28l-.61.54-.48.48-.68.67c-.16.14-.24.22-.25.21s.06-.1.2-.26l.62-.71.47-.51.59-.56c.42-.4.9-.87,1.48-1.33l.9-.73,1-.74c.7-.53,1.5-1,2.33-1.53a40.12,40.12,0,0,1,5.76-2.79,41.37,41.37,0,0,1,6.17-1.77c1-.15,1.89-.34,2.77-.4l1.27-.12,1.17,0a19,19,0,0,1,2,0l.83,0,.69.09.95.12A1.12,1.12,0,0,1,298,326.45Z" style="fill: rgb(38, 50, 56); transform-origin: 283.21px 331.842px;" id="el1n0wdaetcy5" class="animable"></path><path d="M233.42,336.71a13.65,13.65,0,0,0-1.61-1.86,15,15,0,0,0-5.88-3.21,33.49,33.49,0,0,0-4.59-1c-1.67-.26-3.48-.46-5.37-.78a44.93,44.93,0,0,1-5.83-1.43,38.39,38.39,0,0,0-6.22-1.46,26.51,26.51,0,0,0-12.11,1.63,45.31,45.31,0,0,0-4.93,2.16c-1.51.75-2.89,1.49-4.15,2.19-2.51,1.38-4.51,2.56-5.89,3.38l-1.59.95-.41.24-.15.07.13-.1.39-.27c.35-.24.88-.58,1.55-1,1.36-.85,3.34-2.06,5.84-3.48,1.26-.71,2.64-1.46,4.14-2.23a43,43,0,0,1,4.95-2.2A26.73,26.73,0,0,1,204,326.64a39.07,39.07,0,0,1,6.27,1.48,46.58,46.58,0,0,0,5.79,1.44c1.87.32,3.68.54,5.36.81a32.56,32.56,0,0,1,4.62,1,14.71,14.71,0,0,1,5.9,3.34A7.3,7.3,0,0,1,233.42,336.71Z" style="fill: rgb(38, 50, 56); transform-origin: 204.055px 332.049px;" id="elpus2uf46tvi" class="animable"></path><path d="M167.66,325.36a2.51,2.51,0,0,1,0,.79,9.19,9.19,0,0,1-.57,2.1,12.1,12.1,0,0,1-4.49,5.6,30.87,30.87,0,0,1-6.65,3c-.89.29-1.61.49-2.12.62a3.51,3.51,0,0,1-.8.16,4.47,4.47,0,0,1,.76-.29l2.08-.73a34.94,34.94,0,0,0,6.54-3,12.44,12.44,0,0,0,4.44-5.39A15.7,15.7,0,0,0,167.66,325.36Z" style="fill: rgb(38, 50, 56); transform-origin: 160.361px 331.495px;" id="el1tm2g2ec3wm" class="animable"></path><path d="M99.89,337.61a5,5,0,0,1,.71-.66c.47-.42,1.18-1,2.08-1.66a60,60,0,0,1,7.44-4.67c3-1.63,5.87-2.93,7.93-3.85,1-.46,1.87-.82,2.45-1.06a5,5,0,0,1,.92-.35,5.48,5.48,0,0,1-.86.47l-2.4,1.16c-2,1-4.84,2.31-7.86,3.93a72.76,72.76,0,0,0-7.47,4.57c-.91.64-1.64,1.18-2.14,1.56A4.69,4.69,0,0,1,99.89,337.61Z" style="fill: rgb(38, 50, 56); transform-origin: 110.655px 331.485px;" id="elyd65o4bkinc" class="animable"></path><path d="M113.64,325.87a18.09,18.09,0,0,0-1.88,0,13.61,13.61,0,0,0-4.87,1.45,44.56,44.56,0,0,0-6.33,4.13,31.85,31.85,0,0,1-3.81,2.41,21.49,21.49,0,0,1-4.55,1.71,43.82,43.82,0,0,1-9.33,1.09c-2.89.08-5.48,0-7.65.11a39,39,0,0,0-5.12.49c-.6.11-1.06.19-1.37.27l-.48.08a2.5,2.5,0,0,1,.46-.15c.31-.1.77-.21,1.36-.34a36.11,36.11,0,0,1,5.14-.6c2.18-.12,4.78-.09,7.65-.19a44.23,44.23,0,0,0,9.25-1.1,21.94,21.94,0,0,0,4.48-1.68,33.25,33.25,0,0,0,3.78-2.36,42.7,42.7,0,0,1,6.41-4.1,13.22,13.22,0,0,1,5-1.35,8.3,8.3,0,0,1,1.41,0A2.74,2.74,0,0,1,113.64,325.87Z" style="fill: rgb(38, 50, 56); transform-origin: 90.945px 331.66px;" id="elktpfjvcx8x" class="animable"></path><path d="M295.72,325.13c0,.09-12.2.17-27.25.17s-27.25-.08-27.25-.17,12.2-.18,27.25-.18S295.72,325,295.72,325.13Z" style="fill: rgb(38, 50, 56); transform-origin: 268.47px 325.125px;" id="eltpqp7mhpi5h" class="animable"></path><polygon points="50.73 487.38 46.59 487.38 44.22 336.65 53.1 336.65 50.73 487.38" style="fill: rgb(69, 90, 100); transform-origin: 48.66px 412.015px;" id="elzbdijwg28a" class="animable"></polygon><polygon points="318.2 487.59 314.05 487.59 316.13 337.08 325 337.08 318.2 487.59" style="fill: rgb(69, 90, 100); transform-origin: 319.525px 412.335px;" id="elacx7l5th7lj" class="animable"></polygon><rect x="294.69" y="325.17" width="37.02" height="12.44" style="fill: rgb(69, 90, 100); transform-origin: 313.2px 331.39px;" id="el3gr2vxbwsnk" class="animable"></rect><path d="M76.47,255.77a2.36,2.36,0,0,0-4.67.7L82.15,319.6h4.72Z" style="fill: rgb(38, 50, 56); transform-origin: 79.322px 286.679px;" id="elv5ianenatdj" class="animable"></path><path d="M72.78,256.55l42.64-46.84.31.51,2.07,3.42L76.28,259.72a2.36,2.36,0,1,1-3.5-3.17Z" style="fill: rgb(38, 50, 56); transform-origin: 94.9845px 235.103px;" id="elzc7h2jnybi" class="animable"></path><path d="M75.91,257.76s.08-.1.06-.29a1.12,1.12,0,0,0-.39-.73,1.27,1.27,0,0,0-1.24-.23,1.33,1.33,0,0,0,0,2.51,1.3,1.3,0,0,0,1.24-.24,1.11,1.11,0,0,0,.39-.72c0-.2,0-.3-.06-.3s-.07.44-.54.75a1,1,0,0,1-.88.09.92.92,0,0,1-.57-.84.93.93,0,0,1,.57-.84,1,1,0,0,1,.88.09C75.84,257.32,75.84,257.78,75.91,257.76Z" style="fill: rgb(69, 90, 100); transform-origin: 74.7118px 257.762px;" id="elpw8o08xrfi8" class="animable"></path><path d="M75.26,253.82A6.63,6.63,0,0,0,74,255a16,16,0,0,0-1.28,1.41,3,3,0,0,0-.67,2.33,2.38,2.38,0,0,0,1.73,1.7,2.52,2.52,0,0,0,2-.27c1-.6,1.3-1.21,1.26-1.24s-.5.47-1.41.94a2.27,2.27,0,0,1-1.68.15,2,2,0,0,1-1.39-1.38,2.58,2.58,0,0,1,.56-2c.39-.55.84-1,1.17-1.44A6.26,6.26,0,0,0,75.26,253.82Z" style="fill: rgb(69, 90, 100); transform-origin: 74.5329px 257.178px;" id="elt27dktbz2rl" class="animable"></path><path d="M105.59,325.17H66.77s5-6.17,17.88-6.17C96.68,319,103.86,322.54,105.59,325.17Z" style="fill: rgb(38, 50, 56); transform-origin: 86.18px 322.085px;" id="elvzfvm07b0lp" class="animable"></path><polygon points="115.18 202.28 113.2 199.32 115.64 197.45 117.73 200.43 115.18 202.28" style="fill: rgb(38, 50, 56); transform-origin: 115.465px 199.865px;" id="eld7t5sj9bib5" class="animable"></polygon><path d="M111.83,204.07l8.5-6.17,8.16,9.82c14.15,2.28,19.85,11.18,19.85,11.18L123,238.29c-8.67-9.58-4.56-23.27-4.56-23.27Z" style="fill: #070D1E; transform-origin: 130.085px 218.095px;" id="elx53114sgnj" class="animable"></path><path d="M118.45,215a39.46,39.46,0,0,0,5.16-3.46,40.85,40.85,0,0,0,4.88-3.84,39.46,39.46,0,0,0-5.16,3.46A39.69,39.69,0,0,0,118.45,215Z" style="fill: rgb(38, 50, 56); transform-origin: 123.47px 211.35px;" id="el9kjft9wz14" class="animable"></path><path d="M257.46,272.27,235.2,321.51a7.29,7.29,0,0,1-5.95,3.72l-102.71-.14h0a4.36,4.36,0,0,1,4.23-3.84l39-.85,19.95-47.88a4.12,4.12,0,0,1,3.78-2.54l62.2-.47A2,2,0,0,1,257.46,272.27Z" style="fill: rgb(38, 50, 56); transform-origin: 192.075px 297.37px;" id="elm20agpsat2i" class="animable"></path><path d="M171.65,325.65a2.19,2.19,0,0,0,.3-.53c.2-.43.44-1,.74-1.59l2.61-5.9c2.17-5,5.12-11.92,8.29-19.6s6-14.66,7.91-19.75c1-2.55,1.74-4.61,2.24-6,.22-.67.41-1.21.56-1.66a2.64,2.64,0,0,0,.16-.6,2.29,2.29,0,0,0-.28.55c-.18.44-.41,1-.68,1.62-.6,1.5-1.42,3.52-2.42,6L183,297.79c-3.15,7.64-6,14.55-8.12,19.66-1,2.46-1.81,4.48-2.42,6l-.63,1.64A2.06,2.06,0,0,0,171.65,325.65Z" style="fill: rgb(69, 90, 100); transform-origin: 183.055px 297.835px;" id="el0rosg2il0m5o" class="animable"></path><path d="M211.92,296.14a3.19,3.19,0,1,0,3.19-3.18A3.18,3.18,0,0,0,211.92,296.14Z" style="fill: rgb(255, 255, 255); transform-origin: 215.11px 296.15px;" id="ela33jq3k7ufm" class="animable"></path></g><g id="freepik--Character--inject-68" class="animable" style="transform-origin: 368.93px 307.962px;"><path d="M302.3,147.43c1.17-2.66-.17-6-2.32-8a7.83,7.83,0,0,0-8.16-1.32,5.57,5.57,0,0,0-2.8,2.39,5.33,5.33,0,0,0,.86,5.7,10,10,0,0,0,5.2,3,8.85,8.85,0,0,0,4.3.24,4.46,4.46,0,0,0,3.23-2.64" style="fill: rgb(38, 50, 56); transform-origin: 295.643px 143.552px;" id="el9cygc8jrbmf" class="animable"></path><path d="M357.4,183.21c-2,.66-4.15-1.09-4.62-3.11s.27-4.12,1.15-6,1.91-3.77,2.06-5.84c.26-3.53-2.07-6.67-3.08-10.06-2.1-7,1.45-15.31-2.25-21.69a15.44,15.44,0,0,0-7.62-6.82,13.44,13.44,0,0,0-11.13.37,20.43,20.43,0,0,0-15.94-2.5,20.17,20.17,0,0,0-12.59,10c-1.71,3.27-2.49,7-4.52,10.07-1.56,2.35-3.88,4.46-4.11,7.26-.3,3.55,2.92,6.53,3.25,10.08.38,4.19-3.32,8.36-1.78,12.28,1.06,2.71,4.39,4.33,4.73,7.22a6.11,6.11,0,0,0,.35,2.42,5.33,5.33,0,0,0,4.42,2.12c17.69-1.08,32.69,1.56,48.49-2.49a6,6,0,0,0,2.35-1A2.23,2.23,0,0,0,357.4,183.21Z" style="fill: rgb(38, 50, 56); transform-origin: 326.096px 157.968px;" id="elzn6u2hhtq2r" class="animable"></path><path d="M308.83,143.32l-.19-3.71,22.18-4.94c6.86-.94,14.52,5.72,15.17,12.61.72,7.66,1.3,17,.57,22.79-1.48,11.57-10.25,13.31-10.25,13.31l.3,14.07-25.42-.91Z" style="fill: rgb(255, 190, 157); transform-origin: 327.768px 166.015px;" id="ellynocrtamwj" class="animable"></path><path d="M342.93,155.83a1.48,1.48,0,0,1-1.38,1.53,1.4,1.4,0,0,1-1.56-1.28,1.48,1.48,0,0,1,1.37-1.54A1.42,1.42,0,0,1,342.93,155.83Z" style="fill: rgb(38, 50, 56); transform-origin: 341.46px 155.951px;" id="ellfz70l3unvn" class="animable"></path><path d="M343.7,152.25c-.17.2-1.32-.59-2.91-.54s-2.72.88-2.9.69.09-.43.58-.82a4,4,0,0,1,2.32-.79,3.87,3.87,0,0,1,2.33.67C343.62,151.82,343.79,152.16,343.7,152.25Z" style="fill: rgb(38, 50, 56); transform-origin: 340.779px 151.608px;" id="elflq9dngv9dg" class="animable"></path><path d="M328.13,156.51a1.48,1.48,0,0,1-1.37,1.54,1.42,1.42,0,0,1-1.57-1.29,1.48,1.48,0,0,1,1.38-1.53A1.4,1.4,0,0,1,328.13,156.51Z" style="fill: rgb(38, 50, 56); transform-origin: 326.66px 156.639px;" id="eln6ltfjg10ps" class="animable"></path><path d="M328.1,153c-.18.2-1.32-.59-2.91-.54s-2.73.88-2.91.69.09-.43.59-.82a4,4,0,0,1,2.32-.79,3.83,3.83,0,0,1,2.32.67C328,152.6,328.18,152.94,328.1,153Z" style="fill: rgb(38, 50, 56); transform-origin: 325.171px 152.358px;" id="elba50dvnz2ym" class="animable"></path><path d="M334.23,164.63a10.43,10.43,0,0,1,2.56-.54c.41-.06.79-.15.85-.43a2,2,0,0,0-.31-1.19L336,159.42c-1.81-4.35-3.12-7.93-3-8s1.78,3.39,3.58,7.74c.44,1.07.85,2.09,1.25,3.07a2.34,2.34,0,0,1,.26,1.59,1,1,0,0,1-.65.61,2.78,2.78,0,0,1-.69.12A10,10,0,0,1,334.23,164.63Z" style="fill: rgb(38, 50, 56); transform-origin: 335.562px 158.047px;" id="el8vek22gbs6e" class="animable"></path><path d="M336.3,183.41a30.42,30.42,0,0,1-15.93-3.65s4.13,7.94,16,6.52Z" style="fill: rgb(235, 153, 110); transform-origin: 328.37px 183.105px;" id="el41j7736wutw" class="animable"></path><path d="M333.68,168.48a2.88,2.88,0,0,0-2.6-1,2.61,2.61,0,0,0-1.78,1,1.68,1.68,0,0,0-.07,1.9,1.92,1.92,0,0,0,2.1.46,6.13,6.13,0,0,0,2-1.27,2.06,2.06,0,0,0,.44-.49.53.53,0,0,0,0-.59" style="fill: rgb(235, 153, 110); transform-origin: 331.414px 169.214px;" id="el2ao9hju5kks" class="animable"></path><path d="M329.59,165.88c.26,0,.31,1.7,1.83,2.88s3.34.93,3.36,1.17-.4.35-1.17.39a4.31,4.31,0,0,1-2.81-.88,3.74,3.74,0,0,1-1.42-2.42C329.29,166.3,329.47,165.87,329.59,165.88Z" style="fill: rgb(38, 50, 56); transform-origin: 332.068px 168.102px;" id="elgzcnx5n8tw" class="animable"></path><path d="M328.31,148.53c-.14.44-1.73.28-3.59.57s-3.35.83-3.61.46c-.11-.19.14-.6.73-1a6.14,6.14,0,0,1,2.66-1,6.08,6.08,0,0,1,2.83.24C328,148,328.38,148.33,328.31,148.53Z" style="fill: rgb(38, 50, 56); transform-origin: 324.701px 148.588px;" id="elgwns3xvstat" class="animable"></path><path d="M343.49,146.8c-.27.37-1.38,0-2.69.06s-2.43.31-2.69-.06c-.12-.18,0-.54.52-.9a3.75,3.75,0,0,1,2.17-.66,3.67,3.67,0,0,1,2.16.66C343.44,146.26,343.61,146.62,343.49,146.8Z" style="fill: rgb(38, 50, 56); transform-origin: 340.797px 146.119px;" id="elehquqcrn2xw" class="animable"></path><path d="M328.34,133.3a145.18,145.18,0,0,0-18.74,4.5,4.5,4.5,0,0,0-2.51,1.46,4.68,4.68,0,0,0-.48,2.92,97.15,97.15,0,0,1-.77,18.12,23.78,23.78,0,0,0,.37,8.24c1.09,5.13.31,20.48,4.39,20.25,15.26-3.25,4.73-14.52,3.16-19.8a5.68,5.68,0,0,1,1.29-5.2c.92-1,2.22-1.69,3.19-2.69a6.16,6.16,0,0,0,.42-8,5.29,5.29,0,0,1-1.36-3c-.19-2.91,2.69-3.39,4.88-4.09,4.61-1.47,10.9-8.73,9.58-13.29Z" style="fill: rgb(38, 50, 56); transform-origin: 318.79px 160.756px;" id="elu5ikvxlhz3q" class="animable"></path><path d="M300.25,145.42a20.66,20.66,0,0,0,5.12.88,26,26,0,0,0,12.07-3,45.78,45.78,0,0,0,10.18-7.36c1.19-1.1,2.1-2,2.75-2.68a7.92,7.92,0,0,1,1-1,8.71,8.71,0,0,1-.87,1.11c-.6.69-1.48,1.67-2.64,2.81a42.32,42.32,0,0,1-10.21,7.56,25.07,25.07,0,0,1-12.31,2.92,14.73,14.73,0,0,1-3.81-.69c-.43-.15-.76-.28-1-.38S300.24,145.44,300.25,145.42Z" style="fill: rgb(69, 90, 100); transform-origin: 315.809px 139.463px;" id="eleuiavirxhqi" class="animable"></path><path d="M329.92,130.18a6.23,6.23,0,0,1-.72,1.07,28.15,28.15,0,0,1-2.31,2.64,30.36,30.36,0,0,1-20.84,8.92,27.61,27.61,0,0,1-3.51-.14,5.66,5.66,0,0,1-1.26-.22c0-.1,1.82.14,4.76,0a32.1,32.1,0,0,0,20.59-8.83C328.76,131.6,329.84,130.12,329.92,130.18Z" style="fill: rgb(69, 90, 100); transform-origin: 315.6px 136.498px;" id="elrm6ab5jrmmh" class="animable"></path><path d="M352,139.81a3,3,0,0,1-.83,0,17.82,17.82,0,0,1-2.26-.19,25.11,25.11,0,0,1-7.16-2.14,30.93,30.93,0,0,1-6.28-4.06c-.73-.61-1.31-1.12-1.69-1.5s-.58-.6-.55-.62a26.14,26.14,0,0,1,2.47,1.83,36.36,36.36,0,0,0,6.28,3.87,29,29,0,0,0,7,2.26C350.78,139.63,352,139.72,352,139.81Z" style="fill: rgb(69, 90, 100); transform-origin: 342.614px 135.569px;" id="elb31igv7lg7d" class="animable"></path><path d="M297.32,169.24a7.68,7.68,0,0,1,.24-1.19,9.91,9.91,0,0,0,.25-3.21,6.24,6.24,0,0,0-.64-2.1c-.35-.72-.85-1.42-1.34-2.23a9.4,9.4,0,0,1-1.38-5.88,6.39,6.39,0,0,1,1.2-2.95c.6-.83,1.26-1.54,1.78-2.28a28.12,28.12,0,0,0,2.48-4.16c.62-1.24,1.08-2.27,1.41-3a5.18,5.18,0,0,1,.56-1.08,5.5,5.5,0,0,1-.37,1.16c-.28.73-.69,1.78-1.27,3.05a25.74,25.74,0,0,1-2.42,4.28c-1.06,1.53-2.65,2.93-2.86,5a9.14,9.14,0,0,0,1.29,5.57c.45.78,1,1.52,1.31,2.28a6.32,6.32,0,0,1,.61,2.25,9,9,0,0,1-.41,3.3A4.65,4.65,0,0,1,297.32,169.24Z" style="fill: rgb(69, 90, 100); transform-origin: 298.143px 155.2px;" id="el2xzwv2uvokm" class="animable"></path><path d="M366.67,245.55l-14.24,9.23-1.3,14.4s4.19,1.95,10.34-3.64,14.16-16.92,14.16-16.92Z" style="fill: rgb(255, 190, 157); transform-origin: 363.38px 257.53px;" id="elt3gbt48v4ip" class="animable"></path><polygon points="366.04 251.46 361.37 227.79 348.92 232.72 352.1 263.89 366.04 251.46" style="fill: rgb(255, 190, 157); transform-origin: 357.48px 245.84px;" id="elcatj6ywjegq" class="animable"></polygon><path d="M399.79,221.49a1.55,1.55,0,0,0-1.15-1l-8.95-1.73a2.79,2.79,0,0,0-2.23.56l-27,21.26,1.1,1.23,9.56,2.91,28.85-22.83Z" style="fill: rgb(38, 50, 56); transform-origin: 380.215px 231.718px;" id="elb3dhjn44ms7" class="animable"></path><path d="M392.53,223a.64.64,0,0,0,1.07-.62.64.64,0,0,0-1.07.62Z" style="fill: rgb(255, 255, 255); transform-origin: 393.065px 222.69px;" id="el9ael2x20hi9" class="animable"></path><path d="M399.94,221.92a12.15,12.15,0,0,1-1.76-.24l-4.77-.83-3.29-.61a1.88,1.88,0,0,0-1.59.33L387,221.8l-6.91,5.45c-4.91,3.85-9.38,7.32-12.63,9.81L363.59,240a10.11,10.11,0,0,1-1.47,1,15,15,0,0,1,1.34-1.18l3.75-3.06c3.19-2.56,7.62-6.07,12.53-9.93l6.94-5.42,1.56-1.21a2.36,2.36,0,0,1,1.95-.39l3.28.67,4.75,1A10.93,10.93,0,0,1,399.94,221.92Z" style="fill: rgb(69, 90, 100); transform-origin: 381.03px 230.372px;" id="el59liz1c6wuf" class="animable"></path><path d="M387.14,228.45s-.71-.39-1.84,1.55-4.5,7.47-4.5,7.47L377.53,234l-5.22-1.05s-1.43.64-.82,1.46a18.57,18.57,0,0,0,3.58,2.46l1.19,4.13-5.59-5.49s-2.43-.17-2.23,1.41,3.25,7.37,3.25,7.37l-3.27-1.39-3.16-3.77s-1.24-.36-1.13.84,3,6.36,3,6.36l4.2,4.14s2.81.72,3.35,0a10.45,10.45,0,0,0,1-1.84s1.59.1,2.1-.51a4.73,4.73,0,0,0,.72-1.79s2.14,1.17,2.86,0a15.17,15.17,0,0,0,1.43-4.83c.11-1.05,4.4-9.75,4.4-10.06S388.78,228.34,387.14,228.45Z" style="fill: rgb(255, 190, 157); transform-origin: 376.003px 239.604px;" id="eldvc7pb2jtbd" class="animable"></path><path d="M374.81,250.53a2.88,2.88,0,0,1-1.45,0,9.36,9.36,0,0,1-3.26-1.27,9.21,9.21,0,0,1-2.56-2.39c-.52-.73-.72-1.25-.66-1.28a19.53,19.53,0,0,0,3.51,3.21A19.83,19.83,0,0,0,374.81,250.53Z" style="fill: rgb(235, 153, 110); transform-origin: 370.84px 248.106px;" id="el4fvz6k31wno" class="animable"></path><path d="M374.23,248.33c-.12.08-.85-.68-1.53-1.79s-1.06-2.09-.92-2.16.71.8,1.38,1.88S374.35,248.23,374.23,248.33Z" style="fill: rgb(235, 153, 110); transform-origin: 372.999px 246.356px;" id="els4d3y3suaj" class="animable"></path><path d="M378.34,244.89c-.11.09-.84-.67-1.45-1.79a4,4,0,0,1-.71-2.2c.14-.05.6.85,1.19,1.94S378.47,244.8,378.34,244.89Z" style="fill: rgb(235, 153, 110); transform-origin: 377.27px 242.898px;" id="elbic7cwuji0d" class="animable"></path><path d="M382.31,242.34a13.41,13.41,0,0,1-.79-2.4,13.32,13.32,0,0,1-.84-2.38,5.93,5.93,0,0,1,1.63,4.78Z" style="fill: rgb(235, 153, 110); transform-origin: 381.513px 239.95px;" id="elpi0qxagrv3i" class="animable"></path><path d="M343.71,194.61s8.45,3.78,11.35,8.56,10.77,32.17,10.77,32.17l-11.06,2.19Z" style="fill: #070D1E; transform-origin: 354.77px 216.07px;" id="elcrgpcywhw3t" class="animable"></path><polygon points="338.04 192.91 310.94 190.82 314.43 205.75 338.7 213.84 341.92 208.39 338.04 192.91" style="fill: rgb(255, 190, 157); transform-origin: 326.43px 202.33px;" id="elvze314op0v" class="animable"></polygon><path d="M355.25,225.15c-2.18-7.51-11.54-30.54-11.54-30.54l-7.21-2.16s0,7.51-2.66,8-15.46.56-21.75-7.54l-1.15-2.09-17.89,11.46h0c-3,1.83-7.37,6.11-8,14.87-.58,8-1.55,29.17-1.55,29.17L301,245.7l1.43,7.82-1.22,9.22s-2.42,13-1,15a6,6,0,0,0,3.88,2.21l47-3.64,1.56-25.89S357.43,232.67,355.25,225.15Z" style="fill: #070D1E; transform-origin: 319.66px 235.385px;" id="el9trrbbdmnbf" class="animable"></path><path d="M286.89,246.32s-1.67,16.19.19,23.62c1.93,7.68,5.74,7.57,8.95,7.79s53.78-26.27,53.78-26.27l-5.61-10L306.12,253l.35-7.43Z" style="fill: rgb(255, 190, 157); transform-origin: 318.006px 259.596px;" id="el0hj1r387sk7m" class="animable"></path><path d="M343.88,241.79,353,230.36l8.24-1.91,10,1.11a2,2,0,0,1-1.2,2.31l3.51.2a2,2,0,0,1-1.3,2.61l2.51.44a3.61,3.61,0,0,1-3.92,2.07,54.79,54.79,0,0,0-7.43-.5l-4.92,2.71,7.33-.3,5.32,1s.71,1.36-.5,1.68-5.83,0-5.83,0l-7,1.83s-1.5,4.52-2.41,5.53-5.93,2.31-5.93,2.31Z" style="fill: rgb(255, 190, 157); transform-origin: 359.32px 239.95px;" id="elxax8u08nfbj" class="animable"></path><path d="M373.6,232.07a14.17,14.17,0,0,1-2.73-.1c-1.68-.13-4-.35-6.55-.63l-2.45-.27h.1c-1.91.54-3.56,1-4.74,1.28a8.51,8.51,0,0,1-1.91.38,8.23,8.23,0,0,1,1.82-.7c1.15-.39,2.79-.9,4.68-1.46l.05,0h.05l2.46.25c2.55.28,4.86.56,6.53.79A14.27,14.27,0,0,1,373.6,232.07Z" style="fill: rgb(235, 153, 110); transform-origin: 364.46px 231.65px;" id="eltgiw1qhbuxo" class="animable"></path><path d="M374.21,235a12,12,0,0,1-2.48-.17c-1.52-.17-3.61-.45-5.92-.79l-2.29-.34.13,0a42.77,42.77,0,0,1-5.78,2,39.81,39.81,0,0,1,5.59-2.52l.06,0h.07l2.3.33c2.31.33,4.39.67,5.9.94A10.91,10.91,0,0,1,374.21,235Z" style="fill: rgb(235, 153, 110); transform-origin: 366.04px 234.44px;" id="el81opn9vb8ws" class="animable"></path><path d="M349.49,251.46a5.38,5.38,0,0,1,.81-.27c.53-.17,1.31-.42,2.32-.78.5-.19,1.05-.4,1.64-.67a5.81,5.81,0,0,0,.86-.5,2.54,2.54,0,0,0,.62-.83,36.62,36.62,0,0,0,1.93-4.84l0-.09.09,0,7-1.86h.07c1.2.07,2.47.13,3.78.13a10.48,10.48,0,0,0,1.95-.14.62.62,0,0,0,.53-.49,1.49,1.49,0,0,0-.16-.86l.17.12-5.33-1h.06l-7.33.32-1.13.05,1-.55,4.92-2.72.06,0h.07c1.86,0,3.82.08,5.81.28.54.06,1.09.13,1.63.22a3.55,3.55,0,0,0,1.49,0,3.47,3.47,0,0,0,2.17-1.86l.2.37-2.51-.44-.92-.17.87-.35a2,2,0,0,0,1.09-.9,1.83,1.83,0,0,0,.07-1.36l.23.16-3.52-.2-1-.06.86-.43a2.07,2.07,0,0,0,.91-.84,1.8,1.8,0,0,0,.17-1.18l.22.19-10-1.13h.08l-8.25,1.88.11-.07-6.76,8.32L344.55,241l-.49.57q-.17.19-.18.18a1,1,0,0,1,.14-.22l.45-.6,1.77-2.3,6.62-8.43,0-.05H353l8.23-2h.07l10.05,1.08.18,0,0,.16a2.3,2.3,0,0,1-.2,1.55,2.59,2.59,0,0,1-1.14,1.06l-.1-.49,3.52.2h.18l.05.15a2.35,2.35,0,0,1-.09,1.8,2.53,2.53,0,0,1-1.36,1.16l-.06-.51,2.52.44.35.06-.15.31a3.78,3.78,0,0,1-4.25,2.22c-.53-.08-1.06-.15-1.6-.21-2-.2-3.91-.26-5.75-.28l.13,0-4.93,2.71-.14-.5,7.34-.29h.06l5.32,1,.12,0,.05.11a2,2,0,0,1,.2,1.17,1.11,1.11,0,0,1-.88.85,10.65,10.65,0,0,1-2.07.14c-1.33,0-2.6-.07-3.81-.16h.07l-7,1.79.12-.11a34.51,34.51,0,0,1-2,4.86,2.77,2.77,0,0,1-.72.91,4.88,4.88,0,0,1-.92.5,17.4,17.4,0,0,1-1.67.64c-1,.33-1.81.55-2.35.69l-.62.15A.6.6,0,0,1,349.49,251.46Z" style="fill: rgb(235, 153, 110); transform-origin: 359.54px 239.805px;" id="ellh7nbc1o84" class="animable"></path><path d="M283,246.32a1.78,1.78,0,0,1,.49-.07l1.43-.09,5.33-.25,18.24-.7-.25.26c.07-2.56,0-5.29-.12-8.09-.23-4.64-.64-9-.9-13.06-.14-2-.19-3.93-.35-5.7a34.75,34.75,0,0,0-.76-4.88,18.53,18.53,0,0,0-2.85-6.51c-1-1.37-1.73-2-1.69-2a3.1,3.1,0,0,1,.54.44,12.38,12.38,0,0,1,1.32,1.45,17.88,17.88,0,0,1,3.05,6.55,32.22,32.22,0,0,1,.83,4.93c.19,1.79.26,3.7.41,5.7.29,4,.71,8.42.94,13.07.15,2.81.18,5.56.11,8.13v.25h-.25l-18.25.51-5.34.09h-1.42A3.21,3.21,0,0,1,283,246.32Z" style="fill: rgb(38, 50, 56); transform-origin: 295.903px 225.79px;" id="elckbudk0dsui" class="animable"></path><polygon points="411.92 424.3 429.9 467.17 411.75 475.98 387.34 434.27 411.92 424.3" style="fill: rgb(255, 190, 157); transform-origin: 408.62px 450.14px;" id="elawj2vr0ez2l" class="animable"></polygon><path d="M427.68,461.45l.61,1.2s24.42-2,26.57,1.77l-40.51,20-6.09-13.75C415.66,470.45,422.11,467.66,427.68,461.45Z" style="fill: rgb(69, 90, 100); transform-origin: 431.56px 472.935px;" id="el5mgjs4ae3ed" class="animable"></path><g id="elihus2y6okf"><g style="opacity: 0.6; transform-origin: 415.608px 474.231px;" class="animable" id="elzomcuazmk6"><path d="M414.49,472.92a1.84,1.84,0,0,0-.22,2.45,1.78,1.78,0,0,0,2.43.23,1.94,1.94,0,0,0,.21-2.6,1.84,1.84,0,0,0-2.55,0" style="fill: rgb(255, 255, 255); transform-origin: 415.608px 474.231px;" id="elwlo3fshkrog" class="animable"></path></g></g><g id="elxexinzcitjk"><g style="opacity: 0.6; transform-origin: 433.875px 473.764px;" class="animable" id="eluwns4ovs7ic"><path d="M414.35,484.38l-1.46-3.31,39.35-17.92s2.19-.1,2.62,1.27Z" style="fill: rgb(255, 255, 255); transform-origin: 433.875px 473.764px;" id="elp4lf7sx9agc" class="animable"></path></g></g><path d="M428.48,462.69c.1.2-.85.78-1.51,1.9s-.77,2.2-1,2.21-.49-1.28.34-2.61S428.44,462.49,428.48,462.69Z" style="fill: rgb(38, 50, 56); transform-origin: 427.115px 464.72px;" id="el0ky5aip5rj8p" class="animable"></path><path d="M433.6,462.36c.14.17-.55.92-.81,2.09s0,2.15-.22,2.24-.88-1-.53-2.42S433.5,462.17,433.6,462.36Z" style="fill: rgb(38, 50, 56); transform-origin: 432.779px 464.512px;" id="eljnio8xiik0d" class="animable"></path><path d="M438.52,466.25c-.16.13-.92-.72-.95-2.05s.69-2.22.85-2.1-.12,1-.08,2.08S438.7,466.14,438.52,466.25Z" style="fill: rgb(38, 50, 56); transform-origin: 438.072px 464.176px;" id="elwv1tktuzaca" class="animable"></path><polygon points="375.98 406.43 392.25 451.78 421.1 437.9 391.51 367.76 375.98 406.43" style="fill: rgb(38, 50, 56); transform-origin: 398.54px 409.77px;" id="elkwpm1w5ajq9" class="animable"></polygon><polygon points="383.91 414.44 358.32 473.57 339.17 467.24 358.18 402.22 383.91 414.44" style="fill: rgb(255, 190, 157); transform-origin: 361.54px 437.895px;" id="elkba7q1who4p" class="animable"></polygon><path d="M360.72,467.93l-.41,1.28s18.9,15.61,17.82,19.79l-42.95-13.93L340.4,461C345.82,466,352.4,468.5,360.72,467.93Z" style="fill: rgb(69, 90, 100); transform-origin: 356.677px 475px;" id="el65virb5phfh" class="animable"></path><g id="elvmsvovepapb"><g style="opacity: 0.6; transform-origin: 343.188px 468.722px;" class="animable" id="elumzmgygqiy9"><path d="M343.26,467a1.83,1.83,0,0,0-1.86,1.6,1.76,1.76,0,0,0,1.58,1.86,1.94,1.94,0,0,0,2-1.71c0-.9-1-1.91-1.85-1.75" style="fill: rgb(255, 255, 255); transform-origin: 343.188px 468.722px;" id="eldw5ott1jp06" class="animable"></path></g></g><g id="elpc0gk27buzl"><g style="opacity: 0.6; transform-origin: 356.729px 480.34px;" class="animable" id="elx7zr03zmr8k"><path d="M335.17,475.07l1.26-3.39,40.71,14.59s1.64,1.45,1,2.73Z" style="fill: rgb(255, 255, 255); transform-origin: 356.729px 480.34px;" id="el088bst0p03ak" class="animable"></path></g></g><path d="M360.42,469.38c-.07.21-1.15,0-2.4.3s-2.09,1-2.25.9.54-1.26,2.06-1.64S360.53,469.2,360.42,469.38Z" style="fill: rgb(38, 50, 56); transform-origin: 358.087px 469.706px;" id="elh8ehmdp52c7" class="animable"></path><path d="M364.33,472.7c0,.22-1.05.28-2.05.94s-1.51,1.53-1.71,1.45,0-1.31,1.3-2.1S364.39,472.5,364.33,472.7Z" style="fill: rgb(38, 50, 56); transform-origin: 362.418px 473.784px;" id="el7pqkfs61x7a" class="animable"></path><path d="M365.13,478.92c-.2,0-.15-1.16.76-2.13s2-1.11,2.07-.91-.77.62-1.51,1.43S365.35,479,365.13,478.92Z" style="fill: rgb(38, 50, 56); transform-origin: 366.499px 477.363px;" id="el1tpuwv0reg" class="animable"></path><path d="M346.66,299.53a10.69,10.69,0,0,0-5-4.48l-.28-18L304.09,280s-13.32,18.18-13.32,25.44,0,21.79,16.07,32.26L344.15,311S348.62,302.88,346.66,299.53Z" style="fill: rgb(38, 50, 56); transform-origin: 318.963px 307.375px;" id="elhwlwhvota27" class="animable"></path><polyline points="375.98 345.91 343.71 313.11 332.72 277.74 351.13 276.31 353.38 295.47" style="fill: rgb(38, 50, 56); transform-origin: 354.35px 311.11px;" id="el2eote5tm6mv" class="animable"></polyline><path d="M320.36,279.23a4.28,4.28,0,0,1,.31,1.14,25.05,25.05,0,0,1,.39,3.19,19.06,19.06,0,0,1-.35,4.76,14.23,14.23,0,0,1-2.3,5.4,11.25,11.25,0,0,1-4.46,3.81,9.84,9.84,0,0,1-4.73.86,8.24,8.24,0,0,1-3.11-.85,5.7,5.7,0,0,1-.75-.47c-.16-.12-.24-.18-.23-.2a10.23,10.23,0,0,0,4.12,1.13,9.65,9.65,0,0,0,4.48-.93,11,11,0,0,0,4.24-3.66,16.57,16.57,0,0,0,2.7-9.84C320.62,280.89,320.26,279.25,320.36,279.23Z" style="fill: rgb(38, 50, 56); transform-origin: 313.108px 288.821px;" id="elfyvlxuq8jes" class="animable"></path><path d="M346.52,292.23a6.66,6.66,0,0,1-1.77,1.36,20,20,0,0,1-10.27,3,6.33,6.33,0,0,1-2.23-.21,38.75,38.75,0,0,0,7.42-1.1C343.67,294.13,346.43,292.07,346.52,292.23Z" style="fill: rgb(69, 90, 100); transform-origin: 339.385px 294.417px;" id="eltdetl42jqz" class="animable"></path><path d="M344.45,279.38c0-.05.65-.23,1.45.37a1.9,1.9,0,0,1,.74,1.55,2,2,0,0,1-1.14,1.78,1.87,1.87,0,0,1-2.06-.47,1.53,1.53,0,0,1-.24-1.71,1.49,1.49,0,0,1,.84-.78c.27-.09.42,0,.42,0s-.61.15-.9.94a1.12,1.12,0,0,0,.24,1.21,1.42,1.42,0,0,0,1.49.32,1.55,1.55,0,0,0,.85-1.3,1.56,1.56,0,0,0-.49-1.24C345.05,279.46,344.44,279.47,344.45,279.38Z" style="fill: rgb(69, 90, 100); transform-origin: 344.841px 281.263px;" id="el26b2sto10wq" class="animable"></path><path d="M350.09,302.16a7,7,0,0,1,3-6.16c.12.12-1,1.22-1.81,2.93S350.25,302.18,350.09,302.16Z" style="fill: rgb(69, 90, 100); transform-origin: 351.589px 299.08px;" id="eld1t28ecizuf" class="animable"></path><path d="M383.28,354.09c.1.11-4.54,4.37-10.35,9.52s-10.62,9.23-10.72,9.12,4.54-4.38,10.36-9.53S383.18,354,383.28,354.09Z" style="fill: rgb(69, 90, 100); transform-origin: 372.745px 363.41px;" id="el1csrsuvwnqg" class="animable"></path><path d="M382.39,355.9a8.59,8.59,0,0,1-1.22,2.05,42.34,42.34,0,0,1-3.59,4.48,42.81,42.81,0,0,1-4.17,3.95,8.82,8.82,0,0,1-1.94,1.38c-.11-.13,2.7-2.42,5.71-5.7S382.25,355.81,382.39,355.9Z" style="fill: rgb(69, 90, 100); transform-origin: 376.928px 361.829px;" id="el07n2u2ubqrm4" class="animable"></path><path d="M322.35,281a2.67,2.67,0,0,1-.15.87,13.4,13.4,0,0,1-.78,2.28,18.65,18.65,0,0,1-1.73,3.13,22,22,0,0,1-2.87,3.32,21.72,21.72,0,0,1-3.52,2.61,18.76,18.76,0,0,1-3.25,1.49,13.75,13.75,0,0,1-2.33.61,2.45,2.45,0,0,1-.88.09c0-.1,1.21-.32,3.07-1.06a21.59,21.59,0,0,0,3.13-1.56,23.18,23.18,0,0,0,3.41-2.58,23.43,23.43,0,0,0,2.83-3.21,21.67,21.67,0,0,0,1.79-3C321.94,282.16,322.26,280.94,322.35,281Z" style="fill: rgb(69, 90, 100); transform-origin: 314.595px 288.203px;" id="eloasrg3qcj0p" class="animable"></path><path d="M306.84,337.65l52.91,45.89L343,445.61l32.17,9.66s20.25-70.67,21-82.54-7.05-14.86-10.58-19.63-42.54-41.94-42.54-41.94l-36.26,26.49" style="fill: rgb(38, 50, 56); transform-origin: 351.505px 383.215px;" id="el2v6ed1tv7ae" class="animable"></path><path d="M328.86,304a7.45,7.45,0,0,1,1.86.14,18.92,18.92,0,0,1,5,1.83,27,27,0,0,1,6.86,4.88l8,7.73c5.93,5.76,13,12.6,20.84,20.2l12.23,12c2.1,2.09,4.25,4.22,6.39,6.43a20.61,20.61,0,0,1,5.05,7.88,22.68,22.68,0,0,1,1,4.64,29.27,29.27,0,0,1,0,4.68,56.29,56.29,0,0,1-1.7,8.94c-1.51,5.75-3,11.3-4.34,16.59-2.81,10.55-5.35,20.05-7.48,28s-3.89,14.41-5.11,18.9c-.61,2.2-1.08,3.93-1.41,5.12l-.38,1.33c-.09.3-.15.45-.15.45a3.87,3.87,0,0,1,.1-.46l.33-1.34c.31-1.2.75-2.94,1.32-5.16,1.17-4.49,2.86-10.95,4.95-18.93s4.59-17.51,7.37-28.07l4.3-16.59a55.23,55.23,0,0,0,1.68-8.86,28.16,28.16,0,0,0,0-4.59,21.51,21.51,0,0,0-1-4.52,20.21,20.21,0,0,0-4.93-7.69c-2.13-2.2-4.28-4.34-6.38-6.43l-12.21-12c-7.81-7.63-14.84-14.51-20.76-20.28-2.95-2.89-5.63-5.49-8-7.79a26.82,26.82,0,0,0-6.76-4.91,19.93,19.93,0,0,0-4.92-1.91,13.2,13.2,0,0,0-1.37-.2Z" style="fill: rgb(69, 90, 100); transform-origin: 362.522px 378.865px;" id="elm1mgw39l6" class="animable"></path></g><defs>     <filter id="active" height="200%">         <feMorphology in="SourceAlpha" result="DILATED" operator="dilate" radius="2"></feMorphology>                <feFlood flood-color="#32DFEC" flood-opacity="1" result="PINK"></feFlood>        <feComposite in="PINK" in2="DILATED" operator="in" result="OUTLINE"></feComposite>        <feMerge>            <feMergeNode in="OUTLINE"></feMergeNode>            <feMergeNode in="SourceGraphic"></feMergeNode>        </feMerge>    </filter>    <filter id="hover" height="200%">        <feMorphology in="SourceAlpha" result="DILATED" operator="dilate" radius="2"></feMorphology>                <feFlood flood-color="#ff0000" flood-opacity="0.5" result="PINK"></feFlood>        <feComposite in="PINK" in2="DILATED" operator="in" result="OUTLINE"></feComposite>        <feMerge>            <feMergeNode in="OUTLINE"></feMergeNode>            <feMergeNode in="SourceGraphic"></feMergeNode>        </feMerge>            <feColorMatrix type="matrix" values="0   0   0   0   0                0   1   0   0   0                0   0   0   0   0                0   0   0   1   0 "></feColorMatrix>    </filter></defs></svg>